<?xml version="1.0" encoding="UTF-8" standalone="no"?>
<svg version="1.1" xmlns="http://www.w3.org/2000/svg" xmlns:xlink="http://www.w3.org/1999/xlink" bizzid="31049" width="33.32cm" height="14.03cm" viewBox="0 0 3332.00 1403.00" preserveAspectRatio="none">
<defs>
<g id="symbol-link-icon">
<g>
<g style="fill:none;" transform="matrix(0.83076923,0,0,1,16.923077,0)">
<path d="m 240,307.36218 0,5 c 0,11.08 -8.92,20 -20,20 l -100,0 c -11.08,0 -20,-8.92 -20,-20 l 0,-60 c 0,-11.08 8.92,-20 20,-20 l 100,0 c 11.08,0 20,8.92 20,20 l 0,5"/>
<path d="m 285,307.36218 0,5 c 0,11.08 8.92,20 20,20 l 100,0 c 11.08,0 20,-8.92 20,-20 l 0,-60 c 0,-11.08 -8.92,-20 -20,-20 l -100,0 c -11.08,0 -20,8.92 -20,20 l 0,5"/>
<path d="m 175,282.36218 175,0"/>
</g>
</g>
</g>
<g id="symbol-node-icon">
<path d="M 220,332.36218 L 160,372.36218 L 160,532.36218 L 320,532.36218 L 380,492.36218 L 380,332.36218 L 220,332.36218 z"/>
<path d="M 160,372.36218 L 320,372.36218 L 320,532.36218"/>
<path d="M 320,372.36218 L 380,332.36218"/>
</g>
<g id="symbol-plus-icon">
<path style="fill:none" d="m50,0 0,100"/>
<path style="fill:none" d="m0,50 100,0"/>
</g>
</defs>
<style>
.object313907 {stroke:#000000;stroke-width:6.00}
.object313937 {stroke:#000000;stroke-width:6.00}
.object314218 {fill:#dcdcdc;stroke:none;stroke-width:3.00}
.object313936 {fill:#80ffff;fill-opacity:0.00;stroke:none;stroke-width:3.00}
.object313930 {fill:#80ffff;fill-opacity:0.00;stroke:none;stroke-width:3.00}
.object313931 {fill:#80ffff;fill-opacity:0.00;stroke:none;stroke-width:3.00}
.object313908 {fill:#ffffff;stroke:#d9d9d9;stroke-width:6.00}
.object313924 {fill:#80ffff;fill-opacity:0.00;stroke:none;stroke-width:3.00}
.object313922 {fill:#80ffff;fill-opacity:0.00;stroke:none;stroke-width:3.00}
.object314203 {fill:#ffffff;stroke:#d9d9d9;stroke-width:3.00;stroke-dasharray:16.00,4.00}
.object313905 {fill:#80ffff;fill-opacity:0.00;stroke:none;stroke-width:3.00}
.object313929 {fill:#ffffff;stroke:#d9d9d9;stroke-width:6.00}
.object313932 {fill:#80ffff;fill-opacity:0.00;stroke:none;stroke-width:3.00}
.object313934 {fill:#80ffff;fill-opacity:0.00;stroke:none;stroke-width:3.00}
.object313926 {fill:#80ffff;fill-opacity:0.00;stroke:none;stroke-width:3.00}
.object313923 {fill:#80ffff;fill-opacity:0.00;stroke:none;stroke-width:3.00}
.object313933 {fill:#80ffff;fill-opacity:0.00;stroke:none;stroke-width:3.00}
.object313921 {fill:#ffffff;stroke:#d9d9d9;stroke-width:6.00}
.object313925 {fill:#80ffff;fill-opacity:0.00;stroke:none;stroke-width:3.00}
.object313928 {fill:#80ffff;fill-opacity:0.00;stroke:none;stroke-width:3.00}
.object313904 {fill:#ffffff;stroke:#d9d9d9;stroke-width:6.00}
.object313927 {fill:#80ffff;fill-opacity:0.00;stroke:none;stroke-width:3.00}
.object313906 {fill:#80ffff;fill-opacity:0.00;stroke:none;stroke-width:3.00}
.object313935 {fill:#80ffff;fill-opacity:0.00;stroke:none;stroke-width:3.00}
.icon314218 {fill:none;stroke:#000000;stroke-width:15.65}
</style>
<defs>
</defs>
<g>
<use xlink:href="#background"></use>
<g bizzid="31049" bizzconcept="Canvas" bizztype="">
<g bizzid="313929" bizzsemantic="155524" bizzconcept="UML_Class" bizztype="node" bizzsymbol="rectangle">
<g>
<g class="object313929">
<rect x="2000.00" y="210.00" width="1102.00" height="560.00"/>
</g>
<g transform="translate(2000.00, 210.00)" class="object313929">
<rect style="fill:#ffff80;fillOpacity:0.5" x="0" y="0" width="1102.000" height="60"/>
</g>
</g>
<use xlink:href="#object313929-report"></use>
<g bizzid="313933" bizzsemantic="155530" bizzconcept="UML_Attribute" bizztype="node" bizzsymbol="rectangle">
<g class="object313933">
<rect x="2100.00" y="280.00" width="942.00" height="60.00"/>
</g>
<g style="fill:#ffffff;fill-opacity:0.00;stroke:#000000;stroke-width:20.83" transform=" translate(2020.000000, 298.000000) scale(0.240000,0.240000) translate(-0.000000, -0.000000)">
<use xlink:href="#symbol-plus-icon"></use>
</g>
<g style="fill:#80ffff;stroke:#000000;stroke-width:13.44" transform=" translate(2058.000000, 298.000000) scale(0.179372,0.118227) translate(-158.000000, -330.000000)">
<use xlink:href="#symbol-node-icon"></use>
</g>
<use xlink:href="#object313933-report"></use>
<g bizzid="label313933" bizzconcept="label" bizztype="text" bizzsymbol="text">
<g font-family="Arial" font-size="35.28" fill="#000000">
<text x="2110.00" y="321.50">Business Unit Management Plan Period : DateTimePeriod</text>
</g>
</g>
<use xlink:href="#object313933-lvl"></use>
</g>
<g bizzid="313931" bizzsemantic="155532" bizzconcept="UML_Attribute" bizztype="node" bizzsymbol="rectangle">
<g class="object313931">
<rect x="2100.00" y="340.00" width="942.00" height="60.00"/>
</g>
<g style="fill:#ffffff;fill-opacity:0.00;stroke:#000000;stroke-width:20.83" transform=" translate(2020.000000, 358.000000) scale(0.240000,0.240000) translate(-0.000000, -0.000000)">
<use xlink:href="#symbol-plus-icon"></use>
</g>
<g style="fill:#80ffff;stroke:#000000;stroke-width:13.44" transform=" translate(2058.000000, 358.000000) scale(0.179372,0.118227) translate(-158.000000, -330.000000)">
<use xlink:href="#symbol-node-icon"></use>
</g>
<use xlink:href="#object313931-report"></use>
<g bizzid="label313931" bizzconcept="label" bizztype="text" bizzsymbol="text">
<g font-family="Arial" font-size="35.28" fill="#000000">
<text x="2110.00" y="381.50">Business Unit Usage Policies And Guidelines : Rule Set</text>
</g>
</g>
<use xlink:href="#object313931-lvl"></use>
</g>
<g bizzid="313930" bizzsemantic="155533" bizzconcept="UML_Attribute" bizztype="node" bizzsymbol="rectangle">
<g class="object313930">
<rect x="2100.00" y="400.00" width="942.00" height="60.00"/>
</g>
<g style="fill:#ffffff;fill-opacity:0.00;stroke:#000000;stroke-width:20.83" transform=" translate(2020.000000, 418.000000) scale(0.240000,0.240000) translate(-0.000000, -0.000000)">
<use xlink:href="#symbol-plus-icon"></use>
</g>
<g style="fill:#80ffff;stroke:#000000;stroke-width:13.44" transform=" translate(2058.000000, 418.000000) scale(0.179372,0.118227) translate(-158.000000, -330.000000)">
<use xlink:href="#symbol-node-icon"></use>
</g>
<use xlink:href="#object313930-report"></use>
<g bizzid="label313930" bizzconcept="label" bizztype="text" bizzsymbol="text">
<g font-family="Arial" font-size="35.28" fill="#000000">
<text x="2110.00" y="441.50">Business Unit Performance Goals : Goal</text>
</g>
</g>
<use xlink:href="#object313930-lvl"></use>
</g>
<g bizzid="313936" bizzsemantic="155541" bizzconcept="UML_Attribute" bizztype="node" bizzsymbol="rectangle">
<g class="object313936">
<rect x="2100.00" y="460.00" width="942.00" height="60.00"/>
</g>
<g style="fill:#ffffff;fill-opacity:0.00;stroke:#000000;stroke-width:20.83" transform=" translate(2020.000000, 478.000000) scale(0.240000,0.240000) translate(-0.000000, -0.000000)">
<use xlink:href="#symbol-plus-icon"></use>
</g>
<g style="fill:#80ffff;stroke:#000000;stroke-width:13.44" transform=" translate(2058.000000, 478.000000) scale(0.179372,0.118227) translate(-158.000000, -330.000000)">
<use xlink:href="#symbol-node-icon"></use>
</g>
<use xlink:href="#object313936-report"></use>
<g bizzid="label313936" bizzconcept="label" bizztype="text" bizzsymbol="text">
<g font-family="Arial" font-size="35.28" fill="#000000">
<text x="2110.00" y="501.50">Business Unit Operating Schedule : Schedule</text>
</g>
</g>
<use xlink:href="#object313936-lvl"></use>
</g>
<g bizzid="313932" bizzsemantic="155542" bizzconcept="UML_Attribute" bizztype="node" bizzsymbol="rectangle">
<g class="object313932">
<rect x="2100.00" y="520.00" width="942.00" height="60.00"/>
</g>
<g style="fill:#ffffff;fill-opacity:0.00;stroke:#000000;stroke-width:20.83" transform=" translate(2020.000000, 538.000000) scale(0.240000,0.240000) translate(-0.000000, -0.000000)">
<use xlink:href="#symbol-plus-icon"></use>
</g>
<g style="fill:#80ffff;stroke:#000000;stroke-width:13.44" transform=" translate(2058.000000, 538.000000) scale(0.179372,0.118227) translate(-158.000000, -330.000000)">
<use xlink:href="#symbol-node-icon"></use>
</g>
<use xlink:href="#object313932-report"></use>
<g bizzid="label313932" bizzconcept="label" bizztype="text" bizzsymbol="text">
<g font-family="Arial" font-size="35.28" fill="#000000">
<text x="2110.00" y="561.50">Business Unit Operating Organization : Organisation</text>
</g>
</g>
<use xlink:href="#object313932-lvl"></use>
</g>
<g bizzid="313935" bizzsemantic="155531" bizzconcept="UML_Attribute" bizztype="node" bizzsymbol="rectangle">
<g class="object313935">
<rect x="2100.00" y="580.00" width="942.00" height="60.00"/>
</g>
<g style="fill:#ffffff;fill-opacity:0.00;stroke:#000000;stroke-width:20.83" transform=" translate(2020.000000, 598.000000) scale(0.240000,0.240000) translate(-0.000000, -0.000000)">
<use xlink:href="#symbol-plus-icon"></use>
</g>
<g style="fill:#80ffff;stroke:#000000;stroke-width:13.44" transform=" translate(2058.000000, 598.000000) scale(0.179372,0.118227) translate(-158.000000, -330.000000)">
<use xlink:href="#symbol-node-icon"></use>
</g>
<use xlink:href="#object313935-report"></use>
<g bizzid="label313935" bizzconcept="label" bizztype="text" bizzsymbol="text">
<g font-family="Arial" font-size="35.28" fill="#000000">
<text x="2110.00" y="621.50">Business Unit Resource Plan : Business Unit Resource Plan</text>
</g>
</g>
<use xlink:href="#object313935-lvl"></use>
</g>
<g bizzid="313934" bizzsemantic="155535" bizzconcept="UML_Attribute" bizztype="node" bizzsymbol="rectangle">
<g class="object313934">
<rect x="2100.00" y="640.00" width="942.00" height="60.00"/>
</g>
<g style="fill:#ffffff;fill-opacity:0.00;stroke:#000000;stroke-width:20.83" transform=" translate(2020.000000, 658.000000) scale(0.240000,0.240000) translate(-0.000000, -0.000000)">
<use xlink:href="#symbol-plus-icon"></use>
</g>
<g style="fill:#80ffff;stroke:#000000;stroke-width:13.44" transform=" translate(2058.000000, 658.000000) scale(0.179372,0.118227) translate(-158.000000, -330.000000)">
<use xlink:href="#symbol-node-icon"></use>
</g>
<use xlink:href="#object313934-report"></use>
<g bizzid="label313934" bizzconcept="label" bizztype="text" bizzsymbol="text">
<g font-family="Arial" font-size="35.28" fill="#000000">
<text x="2110.00" y="681.50">Business Unit Training Plan : Business Unit Training Plan</text>
</g>
</g>
<use xlink:href="#object313934-lvl"></use>
</g>
<g bizzid="label313929" bizzconcept="label" bizztype="text" bizzsymbol="text">
<g font-family="Arial" font-size="35.28" fill="#000000">
<text x="2144.00" y="252.00">CR Business Unit Management Plan Instance Record</text>
</g>
</g>
<use xlink:href="#object313929-lvl"></use>
</g>
<g bizzid="313921" bizzsemantic="155537" bizzconcept="UML_Class" bizztype="node" bizzsymbol="rectangle">
<g>
<g class="object313921">
<rect x="700.00" y="240.00" width="1137.00" height="560.00"/>
</g>
<g transform="translate(700.00, 240.00)" class="object313921">
<rect style="fill:#ffff80;fillOpacity:0.5" x="0" y="0" width="1137.000" height="60"/>
</g>
</g>
<use xlink:href="#object313921-report"></use>
<g bizzid="313928" bizzsemantic="155539" bizzconcept="UML_Attribute" bizztype="node" bizzsymbol="rectangle">
<g class="object313928">
<rect x="800.00" y="310.00" width="977.00" height="60.00"/>
</g>
<g style="fill:#ffffff;fill-opacity:0.00;stroke:#000000;stroke-width:20.83" transform=" translate(720.000000, 328.000000) scale(0.240000,0.240000) translate(-0.000000, -0.000000)">
<use xlink:href="#symbol-plus-icon"></use>
</g>
<g style="fill:#80ffff;stroke:#000000;stroke-width:13.44" transform=" translate(758.000000, 328.000000) scale(0.179372,0.118227) translate(-158.000000, -330.000000)">
<use xlink:href="#symbol-node-icon"></use>
</g>
<use xlink:href="#object313928-report"></use>
<g bizzid="label313928" bizzconcept="label" bizztype="text" bizzsymbol="text">
<g font-family="Arial" font-size="35.28" fill="#000000">
<text x="810.00" y="351.50">Business Unit Resource Utilization : Object</text>
</g>
</g>
<use xlink:href="#object313928-lvl"></use>
</g>
<g bizzid="313923" bizzsemantic="155529" bizzconcept="UML_Attribute" bizztype="node" bizzsymbol="rectangle">
<g class="object313923">
<rect x="800.00" y="370.00" width="977.00" height="60.00"/>
</g>
<g style="fill:#ffffff;fill-opacity:0.00;stroke:#000000;stroke-width:20.83" transform=" translate(720.000000, 388.000000) scale(0.240000,0.240000) translate(-0.000000, -0.000000)">
<use xlink:href="#symbol-plus-icon"></use>
</g>
<g style="fill:#80ffff;stroke:#000000;stroke-width:13.44" transform=" translate(758.000000, 388.000000) scale(0.179372,0.118227) translate(-158.000000, -330.000000)">
<use xlink:href="#symbol-node-icon"></use>
</g>
<use xlink:href="#object313923-report"></use>
<g bizzid="label313923" bizzconcept="label" bizztype="text" bizzsymbol="text">
<g font-family="Arial" font-size="35.28" fill="#000000">
<text x="810.00" y="411.50">Business Unit Output/Work Projections : Object</text>
</g>
</g>
<use xlink:href="#object313923-lvl"></use>
</g>
<g bizzid="313926" bizzsemantic="155528" bizzconcept="UML_Attribute" bizztype="node" bizzsymbol="rectangle">
<g class="object313926">
<rect x="800.00" y="430.00" width="977.00" height="60.00"/>
</g>
<g style="fill:#ffffff;fill-opacity:0.00;stroke:#000000;stroke-width:20.83" transform=" translate(720.000000, 448.000000) scale(0.240000,0.240000) translate(-0.000000, -0.000000)">
<use xlink:href="#symbol-plus-icon"></use>
</g>
<g style="fill:#80ffff;stroke:#000000;stroke-width:13.44" transform=" translate(758.000000, 448.000000) scale(0.179372,0.118227) translate(-158.000000, -330.000000)">
<use xlink:href="#symbol-node-icon"></use>
</g>
<use xlink:href="#object313926-report"></use>
<g bizzid="label313926" bizzconcept="label" bizztype="text" bizzsymbol="text">
<g font-family="Arial" font-size="35.28" fill="#000000">
<text x="810.00" y="471.50">Business Unit Performance Statistics : Object</text>
</g>
</g>
<use xlink:href="#object313926-lvl"></use>
</g>
<g bizzid="313922" bizzsemantic="155526" bizzconcept="UML_Attribute" bizztype="node" bizzsymbol="rectangle">
<g class="object313922">
<rect x="800.00" y="490.00" width="977.00" height="60.00"/>
</g>
<g style="fill:#ffffff;fill-opacity:0.00;stroke:#000000;stroke-width:20.83" transform=" translate(720.000000, 508.000000) scale(0.240000,0.240000) translate(-0.000000, -0.000000)">
<use xlink:href="#symbol-plus-icon"></use>
</g>
<g style="fill:#80ffff;stroke:#000000;stroke-width:13.44" transform=" translate(758.000000, 508.000000) scale(0.179372,0.118227) translate(-158.000000, -330.000000)">
<use xlink:href="#symbol-node-icon"></use>
</g>
<use xlink:href="#object313922-report"></use>
<g bizzid="label313922" bizzconcept="label" bizztype="text" bizzsymbol="text">
<g font-family="Arial" font-size="35.28" fill="#000000">
<text x="810.00" y="531.50">Business Unit Performance Statistic Type : Text</text>
</g>
</g>
<use xlink:href="#object313922-lvl"></use>
</g>
<g bizzid="313927" bizzsemantic="155525" bizzconcept="UML_Attribute" bizztype="node" bizzsymbol="rectangle">
<g class="object313927">
<rect x="800.00" y="550.00" width="977.00" height="60.00"/>
</g>
<g style="fill:#ffffff;fill-opacity:0.00;stroke:#000000;stroke-width:20.83" transform=" translate(720.000000, 568.000000) scale(0.240000,0.240000) translate(-0.000000, -0.000000)">
<use xlink:href="#symbol-plus-icon"></use>
</g>
<g style="fill:#80ffff;stroke:#000000;stroke-width:13.44" transform=" translate(758.000000, 568.000000) scale(0.179372,0.118227) translate(-158.000000, -330.000000)">
<use xlink:href="#symbol-node-icon"></use>
</g>
<use xlink:href="#object313927-report"></use>
<g bizzid="label313927" bizzconcept="label" bizztype="text" bizzsymbol="text">
<g font-family="Arial" font-size="35.28" fill="#000000">
<text x="810.00" y="591.50">Business Unit Performance Statistic Value : Amount</text>
</g>
</g>
<use xlink:href="#object313927-lvl"></use>
</g>
<g bizzid="313924" bizzsemantic="155527" bizzconcept="UML_Attribute" bizztype="node" bizzsymbol="rectangle">
<g class="object313924">
<rect x="800.00" y="610.00" width="977.00" height="60.00"/>
</g>
<g style="fill:#ffffff;fill-opacity:0.00;stroke:#000000;stroke-width:20.83" transform=" translate(720.000000, 628.000000) scale(0.240000,0.240000) translate(-0.000000, -0.000000)">
<use xlink:href="#symbol-plus-icon"></use>
</g>
<g style="fill:#80ffff;stroke:#000000;stroke-width:13.44" transform=" translate(758.000000, 628.000000) scale(0.179372,0.118227) translate(-158.000000, -330.000000)">
<use xlink:href="#symbol-node-icon"></use>
</g>
<use xlink:href="#object313924-report"></use>
<g bizzid="label313924" bizzconcept="label" bizztype="text" bizzsymbol="text">
<g font-family="Arial" font-size="35.28" fill="#000000">
<text x="810.00" y="651.50">Business Unit Performance Statistic Interpretation : Object</text>
</g>
</g>
<use xlink:href="#object313924-lvl"></use>
</g>
<g bizzid="313925" bizzsemantic="155534" bizzconcept="UML_Attribute" bizztype="node" bizzsymbol="rectangle">
<g class="object313925">
<rect x="800.00" y="670.00" width="977.00" height="60.00"/>
</g>
<g style="fill:#ffffff;fill-opacity:0.00;stroke:#000000;stroke-width:20.83" transform=" translate(720.000000, 688.000000) scale(0.240000,0.240000) translate(-0.000000, -0.000000)">
<use xlink:href="#symbol-plus-icon"></use>
</g>
<g style="fill:#80ffff;stroke:#000000;stroke-width:13.44" transform=" translate(758.000000, 688.000000) scale(0.179372,0.118227) translate(-158.000000, -330.000000)">
<use xlink:href="#symbol-node-icon"></use>
</g>
<use xlink:href="#object313925-report"></use>
<g bizzid="label313925" bizzconcept="label" bizztype="text" bizzsymbol="text">
<g font-family="Arial" font-size="35.28" fill="#000000">
<text x="810.00" y="711.50">Business Unit Performance Statistic Recommendation : Object</text>
</g>
</g>
<use xlink:href="#object313925-lvl"></use>
</g>
<g bizzid="label313921" bizzconcept="label" bizztype="text" bizzsymbol="text">
<g font-family="Arial" font-size="35.28" fill="#000000">
<text x="1011.50" y="282.00">BQ Performance Instance Record</text>
</g>
</g>
<use xlink:href="#object313921-lvl"></use>
</g>
<g bizzid="313937" bizzsemantic="155536" bizzconcept="UML_Association" bizztype="relation" bizzsymbol="link">
<g>
<g class="object313937">
<path style="fill:none;stroke-miterlimit:1.0;stroke-linejoin:round" d="M 1837.00 520.00 L 2000.00 520.00" />
</g>
</g>
<g style="fill:#ffffff;fill-opacity:0.00;stroke:none;stroke-width:0.00">
<rect x="1846.00" y="542.00" width="103.00" height="77.00"/>
</g>
<g style="fill:#ffffff;fill-opacity:0.00;stroke:none;stroke-width:0.00">
<rect x="1886.00" y="422.00" width="108.00" height="77.00"/>
</g>
<g style="fill:#ffffff;fill-opacity:0.00;stroke:none;stroke-width:0.00">
<ellipse cx="1857.00" cy="520.00" rx="20.00" ry="20.00"/>
</g>
<g style="fill:#ffffff;fill-opacity:0.00;stroke:none;stroke-width:0.00">
<ellipse cx="1980.00" cy="520.00" rx="20.00" ry="20.00"/>
</g>
<use xlink:href="#object313937-report"></use>
<g style="fill:#ffffff;fill-opacity:0.00;stroke:none;stroke-width:0.00">
<rect x="1856.00" y="552.00" width="83.00" height="57.00"/>
</g>
<g font-family="Arial" font-size="35.28" fill="#000000">
<text x="1866.00" y="592.00">0..*</text>
</g>
<g style="fill:#ffffff;fill-opacity:0.00;stroke:none;stroke-width:0.00">
<rect x="1896.00" y="432.00" width="88.00" height="57.00"/>
</g>
<g font-family="Arial" font-size="35.28" fill="#000000">
<text x="1906.00" y="472.00">0..1</text>
</g>
<use xlink:href="#object313937-lvl"></use>
</g>
<g bizzid="313904" bizzsemantic="155523" bizzconcept="UML_Class" bizztype="node" bizzsymbol="rectangle">
<g>
<g class="object313904">
<rect x="2000.00" y="1040.00" width="1229.00" height="260.00"/>
</g>
<g transform="translate(2000.00, 1040.00)" class="object313904">
<rect style="fill:#ffff80;fillOpacity:0.5" x="0" y="0" width="1229.000" height="60"/>
</g>
</g>
<use xlink:href="#object313904-report"></use>
<g bizzid="313905" bizzsemantic="155540" bizzconcept="UML_Attribute" bizztype="node" bizzsymbol="rectangle">
<g class="object313905">
<rect x="2100.00" y="1110.00" width="1069.00" height="60.00"/>
</g>
<g style="fill:#ffffff;fill-opacity:0.00;stroke:#000000;stroke-width:20.83" transform=" translate(2020.000000, 1128.000000) scale(0.240000,0.240000) translate(-0.000000, -0.000000)">
<use xlink:href="#symbol-plus-icon"></use>
</g>
<g style="fill:#80ffff;stroke:#000000;stroke-width:13.44" transform=" translate(2058.000000, 1128.000000) scale(0.179372,0.118227) translate(-158.000000, -330.000000)">
<use xlink:href="#symbol-node-icon"></use>
</g>
<use xlink:href="#object313905-report"></use>
<g bizzid="label313905" bizzconcept="label" bizztype="text" bizzsymbol="text">
<g font-family="Arial" font-size="35.28" fill="#000000">
<text x="2110.00" y="1151.50">Business Unit Production Issue Record : Production Issue</text>
</g>
</g>
<use xlink:href="#object313905-lvl"></use>
</g>
<g bizzid="313906" bizzsemantic="155538" bizzconcept="UML_Attribute" bizztype="node" bizzsymbol="rectangle">
<g class="object313906">
<rect x="2100.00" y="1170.00" width="1069.00" height="60.00"/>
</g>
<g style="fill:#ffffff;fill-opacity:0.00;stroke:#000000;stroke-width:20.83" transform=" translate(2020.000000, 1188.000000) scale(0.240000,0.240000) translate(-0.000000, -0.000000)">
<use xlink:href="#symbol-plus-icon"></use>
</g>
<g style="fill:#80ffff;stroke:#000000;stroke-width:13.44" transform=" translate(2058.000000, 1188.000000) scale(0.179372,0.118227) translate(-158.000000, -330.000000)">
<use xlink:href="#symbol-node-icon"></use>
</g>
<use xlink:href="#object313906-report"></use>
<g bizzid="label313906" bizzconcept="label" bizztype="text" bizzsymbol="text">
<g font-family="Arial" font-size="35.28" fill="#000000">
<text x="2110.00" y="1211.50">Business Unit Issue Analysis And Recommended Response : Object</text>
</g>
</g>
<use xlink:href="#object313906-lvl"></use>
</g>
<g bizzid="label313904" bizzconcept="label" bizztype="text" bizzsymbol="text">
<g font-family="Arial" font-size="35.28" fill="#000000">
<text x="2334.00" y="1082.00">BQ Troubleshooting Instance Record</text>
</g>
</g>
<use xlink:href="#object313904-lvl"></use>
</g>
<g bizzid="313907" bizzsemantic="155522" bizzconcept="UML_Association" bizztype="relation" bizzsymbol="link">
<g>
<g class="object313907">
<path style="fill:none;stroke-miterlimit:1.0;stroke-linejoin:round" d="M 2540.00 1040.00 L 2540.00 770.00" />
</g>
</g>
<g style="fill:#ffffff;fill-opacity:0.00;stroke:none;stroke-width:0.00">
<rect x="2549.00" y="942.00" width="103.00" height="77.00"/>
</g>
<g style="fill:#ffffff;fill-opacity:0.00;stroke:none;stroke-width:0.00">
<rect x="2426.00" y="792.00" width="108.00" height="77.00"/>
</g>
<g style="fill:#ffffff;fill-opacity:0.00;stroke:none;stroke-width:0.00">
<ellipse cx="2540.00" cy="1020.00" rx="20.00" ry="20.00"/>
</g>
<g style="fill:#ffffff;fill-opacity:0.00;stroke:none;stroke-width:0.00">
<ellipse cx="2540.00" cy="790.00" rx="20.00" ry="20.00"/>
</g>
<use xlink:href="#object313907-report"></use>
<g style="fill:#ffffff;fill-opacity:0.00;stroke:none;stroke-width:0.00">
<rect x="2559.00" y="952.00" width="83.00" height="57.00"/>
</g>
<g font-family="Arial" font-size="35.28" fill="#000000">
<text x="2569.00" y="992.00">0..*</text>
</g>
<g style="fill:#ffffff;fill-opacity:0.00;stroke:none;stroke-width:0.00">
<rect x="2436.00" y="802.00" width="88.00" height="57.00"/>
</g>
<g font-family="Arial" font-size="35.28" fill="#000000">
<text x="2446.00" y="842.00">0..1</text>
</g>
<use xlink:href="#object313907-lvl"></use>
</g>
<g bizzid="314203" bizzsemantic="314203" bizzconcept="ViewGraphic" bizztype="node" bizzsymbol="rectangle">
<g class="object314203">
<rect x="50.00" y="740.00" width="500.00" height="250.00"/>
</g>
<use xlink:href="#object314203-report"></use>
<g bizzid="label314203" bizzconcept="label" bizztype="text" bizzsymbol="text">
<g font-family="Verdana" font-size="28.22" fill="#000000" font-weight="bold">
<text x="149.50" y="778.00">Service Operations</text>
</g>
</g>
<use xlink:href="#object314203-lvl"></use>
</g>
<g bizzid="313908" bizzsemantic="36981" bizzconcept="UML_Class" bizztype="node" bizzsymbol="rectangle">
<g>
<g class="object313908">
<rect x="80.00" y="800.00" width="440.00" height="170.00"/>
</g>
<g transform="translate(80.00, 800.00)" class="object313908">
<rect style="fill:#ffff80;fillOpacity:0.5" x="0" y="0" width="440.000" height="102.000"/>
</g>
</g>
<use xlink:href="#object313908-report"></use>
<g bizzid="label313908" bizzconcept="label" bizztype="text" bizzsymbol="text">
<g font-family="Arial" font-size="35.28" fill="#000000">
<text x="91.00" y="842.00" text-decoration="underline">Business Unit Management</text>
</g>
</g>
<g>
<g style="fill:#000000;stroke:none;stroke-width:1.00">
</g>
<g transform="translate(470.00, 930.00)" style="fill:#000000;stroke:none;stroke-width:1.00">
<g bizzsemantic="36980"  bizzid="cb28140b-5261-e911-8237-0693944ba3ce"><g style="fill-opacity:0;stroke-opacity:0"><rect x="0.00" y="0.00" width="40.00" height="30.00"/>
</g><g transform=" translate(0.000000, 0.000000) scale(0.784314,0.588235) translate(-6.000000, -7.000000)">
<path d="m 30.5,41.3 c 0.1,0.4 0.1,0.8 0.1,1.2 0,2.2 -0.8,4.2 -2.4,5.7 L 25,51.4 c -1.5,1.5 -3.6,2.4 -5.7,2.4 -4.5,0 -8.1,-3.6 -8.1,-8.1 0,-2.2 0.8,-4.2 2.4,-5.7 l 3.2,-3.2 c 1.5,-1.5 3.6,-2.4 5.8,-2.4 0.4,0 0.8,0.1 1.2,0.1 L 26.3,32 c -1.2,-0.4 -2.4,-0.6 -3.7,-0.6 -3,0 -5.8,1.2 -7.9,3.3 l -3.2,3.2 c -2.1,2.1 -3.3,4.9 -3.3,7.9 0,6.1 5,11.1 11.1,11.1 3,0 5.8,-1.2 7.9,-3.3 l 3.2,-3.2 c 2.1,-2.1 3.3,-4.9 3.3,-7.9 0,-1.3 -0.2,-2.5 -0.6,-3.7 l -2.6,2.5"/>
<path d="m 44.9,9 c -3,0 -5.8,1.2 -7.9,3.3 l -3.2,3.2 c -2.1,2.1 -3.3,4.9 -3.3,7.9 0,1.3 0.2,2.5 0.6,3.7 l 2.5,-2.5 c -0.1,-0.4 -0.1,-0.8 -0.1,-1.2 0,-2.2 0.8,-4.2 2.4,-5.7 l 3.2,-3.2 c 1.5,-1.5 3.6,-2.4 5.8,-2.4 4.5,0 8.1,3.6 8.1,8.1 0,2.2 -0.8,4.2 -2.4,5.7 l -3.2,3.2 c -1.5,1.5 -3.6,2.4 -5.7,2.4 -0.4,0 -0.8,-0.1 -1.2,-0.1 L 38,33.8 c 1.2,0.4 2.4,0.6 3.7,0.6 3,0 5.8,-1.2 7.9,-3.3 l 3.2,-3.2 C 54.9,25.8 56.1,23 56.1,20 56,14 51,9 44.9,9"/>
<path d="m 24.1,42.5 c -0.4,0 -0.8,-0.2 -1.1,-0.5 -0.6,-0.6 -0.6,-1.6 0,-2.3 l 16,-16 c 0.6,-0.6 1.6,-0.6 2.3,0 0.6,0.6 0.6,1.6 0,2.3 l -16,16 c -0.4,0.4 -0.8,0.5 -1.2,0.5"/>
</g>
</g>
</g>
</g>
<use xlink:href="#object313908-lvl"></use>
</g>
<g bizzid="314218" bizzconcept="ViewHyperlink" bizztype="node" bizzsymbol="rectangle">
<g class="object314218">
<rect x="50.00" y="540.00" width="440.00" height="170.00"/>
</g>
<use xlink:href="#object314218-report"></use>
<g bizzid="icon314218" bizzconcept="icon" bizztype="node" bizzsymbol="link-icon">
<g class="icon314218" transform=" translate(450.000000, 550.000000) scale(0.109890,0.145631) translate(-98.000000, -230.000000)">
<use xlink:href="#symbol-link-icon"></use>
</g>
</g>
<g bizzid="label314218" bizzconcept="label" bizztype="text" bizzsymbol="text">
<g font-family="arial" font-size="35.28" fill="#0000ff">
<text x="159.50" y="616.00" text-decoration="underline">Business Unit </text>
<text x="139.00" y="657.00" text-decoration="underline">Management API</text>
</g>
<g transform="translate(139.00, 584.00)">
<a xlink:href="https://portal.bian.org/service-domain-api/BIAN-14.0.0-BusinessUnitManagement" target="_blank">	<rect fill-opacity="0" stroke="none" x="-89.00" y="-44.00" width="440.00" height="170.00"/></a>
</g>
</g>
<use xlink:href="#object314218-lvl"></use>
</g>
</g>
<use xlink:href="#foreground"></use>
</g>
</svg>
