<?xml version="1.0" encoding="UTF-8" standalone="no"?>
<svg version="1.1" xmlns="http://www.w3.org/2000/svg" xmlns:xlink="http://www.w3.org/1999/xlink" bizzid="43546" width="19.37cm" height="10.92cm" viewBox="0 0 1937.00 1092.00" preserveAspectRatio="none">
<defs>
<g id="symbol-link-icon">
<g>
<g style="fill:none;" transform="matrix(0.83076923,0,0,1,16.923077,0)">
<path d="m 240,307.36218 0,5 c 0,11.08 -8.92,20 -20,20 l -100,0 c -11.08,0 -20,-8.92 -20,-20 l 0,-60 c 0,-11.08 8.92,-20 20,-20 l 100,0 c 11.08,0 20,8.92 20,20 l 0,5"/>
<path d="m 285,307.36218 0,5 c 0,11.08 8.92,20 20,20 l 100,0 c 11.08,0 20,-8.92 20,-20 l 0,-60 c 0,-11.08 -8.92,-20 -20,-20 l -100,0 c -11.08,0 -20,8.92 -20,20 l 0,5"/>
<path d="m 175,282.36218 175,0"/>
</g>
</g>
</g>
<g id="symbol-node-icon">
<path d="M 220,332.36218 L 160,372.36218 L 160,532.36218 L 320,532.36218 L 380,492.36218 L 380,332.36218 L 220,332.36218 z"/>
<path d="M 160,372.36218 L 320,372.36218 L 320,532.36218"/>
<path d="M 320,372.36218 L 380,332.36218"/>
</g>
<g id="symbol-plus-icon">
<path style="fill:none" d="m50,0 0,100"/>
<path style="fill:none" d="m0,50 100,0"/>
</g>
</defs>
<style>
.object324892 {fill:#80ffff;fill-opacity:0.00;stroke:none;stroke-width:3.00}
.object325189 {fill:#ffffff;stroke:#d9d9d9;stroke-width:3.00;stroke-dasharray:16.00,4.00}
.object324895 {fill:#80ffff;fill-opacity:0.00;stroke:none;stroke-width:3.00}
.object324896 {fill:#ffffff;stroke:#d9d9d9;stroke-width:6.00}
.object324890 {fill:#80ffff;fill-opacity:0.00;stroke:none;stroke-width:3.00}
.object324893 {fill:#80ffff;fill-opacity:0.00;stroke:none;stroke-width:3.00}
.object324891 {fill:#80ffff;fill-opacity:0.00;stroke:none;stroke-width:3.00}
.object324889 {fill:#80ffff;fill-opacity:0.00;stroke:none;stroke-width:3.00}
.object325197 {fill:#dcdcdc;stroke:none;stroke-width:3.00}
.object324888 {fill:#ffffff;stroke:#d9d9d9;stroke-width:6.00}
.object324894 {fill:#80ffff;fill-opacity:0.00;stroke:none;stroke-width:3.00}
.icon325197 {fill:none;stroke:#000000;stroke-width:15.65}
</style>
<defs>
</defs>
<g>
<use xlink:href="#background"></use>
<g bizzid="43546" bizzconcept="Canvas" bizztype="">
<g bizzid="324888" bizzsemantic="253971" bizzconcept="UML_Class" bizztype="node" bizzsymbol="rectangle">
<g>
<g class="object324888">
<rect x="640.00" y="360.00" width="1194.00" height="560.00"/>
</g>
<g transform="translate(640.00, 360.00)" class="object324888">
<rect style="fill:#ffff80;fillOpacity:0.5" x="0" y="0" width="1194.000" height="60"/>
</g>
</g>
<use xlink:href="#object324888-report"></use>
<g bizzid="324892" bizzsemantic="153798" bizzconcept="UML_Attribute" bizztype="node" bizzsymbol="rectangle">
<g class="object324892">
<rect x="740.00" y="430.00" width="1034.00" height="60.00"/>
</g>
<g style="fill:#ffffff;fill-opacity:0.00;stroke:#000000;stroke-width:20.83" transform=" translate(660.000000, 448.000000) scale(0.240000,0.240000) translate(-0.000000, -0.000000)">
<use xlink:href="#symbol-plus-icon"></use>
</g>
<g style="fill:#80ffff;stroke:#000000;stroke-width:13.44" transform=" translate(698.000000, 448.000000) scale(0.179372,0.118227) translate(-158.000000, -330.000000)">
<use xlink:href="#symbol-node-icon"></use>
</g>
<use xlink:href="#object324892-report"></use>
<g bizzid="label324892" bizzconcept="label" bizztype="text" bizzsymbol="text">
<g font-family="Arial" font-size="35.28" fill="#000000">
<text x="750.00" y="471.50">Guideline Compliance Assessment Type : AssessmentTypeValues</text>
</g>
</g>
<use xlink:href="#object324892-lvl"></use>
</g>
<g bizzid="324895" bizzsemantic="153796" bizzconcept="UML_Attribute" bizztype="node" bizzsymbol="rectangle">
<g class="object324895">
<rect x="740.00" y="490.00" width="1034.00" height="60.00"/>
</g>
<g style="fill:#ffffff;fill-opacity:0.00;stroke:#000000;stroke-width:20.83" transform=" translate(660.000000, 508.000000) scale(0.240000,0.240000) translate(-0.000000, -0.000000)">
<use xlink:href="#symbol-plus-icon"></use>
</g>
<g style="fill:#80ffff;stroke:#000000;stroke-width:13.44" transform=" translate(698.000000, 508.000000) scale(0.179372,0.118227) translate(-158.000000, -330.000000)">
<use xlink:href="#symbol-node-icon"></use>
</g>
<use xlink:href="#object324895-report"></use>
<g bizzid="label324895" bizzconcept="label" bizztype="text" bizzsymbol="text">
<g font-family="Arial" font-size="35.28" fill="#000000">
<text x="750.00" y="531.50">Business Unit Reference : Business Unit</text>
</g>
</g>
<use xlink:href="#object324895-lvl"></use>
</g>
<g bizzid="324894" bizzsemantic="153794" bizzconcept="UML_Attribute" bizztype="node" bizzsymbol="rectangle">
<g class="object324894">
<rect x="740.00" y="550.00" width="1034.00" height="60.00"/>
</g>
<g style="fill:#ffffff;fill-opacity:0.00;stroke:#000000;stroke-width:20.83" transform=" translate(660.000000, 568.000000) scale(0.240000,0.240000) translate(-0.000000, -0.000000)">
<use xlink:href="#symbol-plus-icon"></use>
</g>
<g style="fill:#80ffff;stroke:#000000;stroke-width:13.44" transform=" translate(698.000000, 568.000000) scale(0.179372,0.118227) translate(-158.000000, -330.000000)">
<use xlink:href="#symbol-node-icon"></use>
</g>
<use xlink:href="#object324894-report"></use>
<g bizzid="label324894" bizzconcept="label" bizztype="text" bizzsymbol="text">
<g font-family="Arial" font-size="35.28" fill="#000000">
<text x="750.00" y="591.50">Product and Service Reference : Product</text>
</g>
</g>
<use xlink:href="#object324894-lvl"></use>
</g>
<g bizzid="324890" bizzsemantic="153797" bizzconcept="UML_Attribute" bizztype="node" bizzsymbol="rectangle">
<g class="object324890">
<rect x="740.00" y="610.00" width="1034.00" height="60.00"/>
</g>
<g style="fill:#ffffff;fill-opacity:0.00;stroke:#000000;stroke-width:20.83" transform=" translate(660.000000, 628.000000) scale(0.240000,0.240000) translate(-0.000000, -0.000000)">
<use xlink:href="#symbol-plus-icon"></use>
</g>
<g style="fill:#80ffff;stroke:#000000;stroke-width:13.44" transform=" translate(698.000000, 628.000000) scale(0.179372,0.118227) translate(-158.000000, -330.000000)">
<use xlink:href="#symbol-node-icon"></use>
</g>
<use xlink:href="#object324890-report"></use>
<g bizzid="label324890" bizzconcept="label" bizztype="text" bizzsymbol="text">
<g font-family="Arial" font-size="35.28" fill="#000000">
<text x="750.00" y="651.50">Customer Reference : InvolvedParty</text>
</g>
</g>
<use xlink:href="#object324890-lvl"></use>
</g>
<g bizzid="324893" bizzsemantic="153792" bizzconcept="UML_Attribute" bizztype="node" bizzsymbol="rectangle">
<g class="object324893">
<rect x="740.00" y="670.00" width="1034.00" height="60.00"/>
</g>
<g style="fill:#ffffff;fill-opacity:0.00;stroke:#000000;stroke-width:20.83" transform=" translate(660.000000, 688.000000) scale(0.240000,0.240000) translate(-0.000000, -0.000000)">
<use xlink:href="#symbol-plus-icon"></use>
</g>
<g style="fill:#80ffff;stroke:#000000;stroke-width:13.44" transform=" translate(698.000000, 688.000000) scale(0.179372,0.118227) translate(-158.000000, -330.000000)">
<use xlink:href="#symbol-node-icon"></use>
</g>
<use xlink:href="#object324893-report"></use>
<g bizzid="label324893" bizzconcept="label" bizztype="text" bizzsymbol="text">
<g font-family="Arial" font-size="35.28" fill="#000000">
<text x="750.00" y="711.50">Document Reference : Document</text>
</g>
</g>
<use xlink:href="#object324893-lvl"></use>
</g>
<g bizzid="324889" bizzsemantic="153795" bizzconcept="UML_Attribute" bizztype="node" bizzsymbol="rectangle">
<g class="object324889">
<rect x="740.00" y="730.00" width="1034.00" height="60.00"/>
</g>
<g style="fill:#ffffff;fill-opacity:0.00;stroke:#000000;stroke-width:20.83" transform=" translate(660.000000, 748.000000) scale(0.240000,0.240000) translate(-0.000000, -0.000000)">
<use xlink:href="#symbol-plus-icon"></use>
</g>
<g style="fill:#80ffff;stroke:#000000;stroke-width:13.44" transform=" translate(698.000000, 748.000000) scale(0.179372,0.118227) translate(-158.000000, -330.000000)">
<use xlink:href="#symbol-node-icon"></use>
</g>
<use xlink:href="#object324889-report"></use>
<g bizzid="label324889" bizzconcept="label" bizztype="text" bizzsymbol="text">
<g font-family="Arial" font-size="35.28" fill="#000000">
<text x="750.00" y="771.50">Guideline Compliance Assessment Work Products : WorkProduct</text>
</g>
</g>
<use xlink:href="#object324889-lvl"></use>
</g>
<g bizzid="324891" bizzsemantic="153793" bizzconcept="UML_Attribute" bizztype="node" bizzsymbol="rectangle">
<g class="object324891">
<rect x="740.00" y="790.00" width="1034.00" height="60.00"/>
</g>
<g style="fill:#ffffff;fill-opacity:0.00;stroke:#000000;stroke-width:20.83" transform=" translate(660.000000, 808.000000) scale(0.240000,0.240000) translate(-0.000000, -0.000000)">
<use xlink:href="#symbol-plus-icon"></use>
</g>
<g style="fill:#80ffff;stroke:#000000;stroke-width:13.44" transform=" translate(698.000000, 808.000000) scale(0.179372,0.118227) translate(-158.000000, -330.000000)">
<use xlink:href="#symbol-node-icon"></use>
</g>
<use xlink:href="#object324891-report"></use>
<g bizzid="label324891" bizzconcept="label" bizztype="text" bizzsymbol="text">
<g font-family="Arial" font-size="35.28" fill="#000000">
<text x="750.00" y="831.50">Guideline Compliance Assessment Result : Assessment</text>
</g>
</g>
<use xlink:href="#object324891-lvl"></use>
</g>
<g bizzid="label324888" bizzconcept="label" bizztype="text" bizzsymbol="text">
<g font-family="Arial" font-size="35.28" fill="#000000">
<text x="813.50" y="402.00">CR Guideline Compliance Assessment Instance Record</text>
</g>
</g>
<use xlink:href="#object324888-lvl"></use>
</g>
<g bizzid="325189" bizzsemantic="325189" bizzconcept="ViewGraphic" bizztype="node" bizzsymbol="rectangle">
<g class="object325189">
<rect x="50.00" y="740.00" width="500.00" height="250.00"/>
</g>
<use xlink:href="#object325189-report"></use>
<g bizzid="label325189" bizzconcept="label" bizztype="text" bizzsymbol="text">
<g font-family="Verdana" font-size="28.22" fill="#000000" font-weight="bold">
<text x="149.50" y="778.00">Service Operations</text>
</g>
</g>
<use xlink:href="#object325189-lvl"></use>
</g>
<g bizzid="324896" bizzsemantic="34272" bizzconcept="UML_Class" bizztype="node" bizzsymbol="rectangle">
<g>
<g class="object324896">
<rect x="80.00" y="800.00" width="440.00" height="170.00"/>
</g>
<g transform="translate(80.00, 800.00)" class="object324896">
<rect style="fill:#ffff80;fillOpacity:0.5" x="0" y="0" width="440.000" height="61.000"/>
</g>
</g>
<use xlink:href="#object324896-report"></use>
<g bizzid="label324896" bizzconcept="label" bizztype="text" bizzsymbol="text">
<g font-family="Arial" font-size="35.28" fill="#000000">
<text x="135.50" y="842.00" text-decoration="underline">Guideline Compliance</text>
</g>
</g>
<g>
<g style="fill:#000000;stroke:none;stroke-width:1.00">
</g>
<g transform="translate(470.00, 930.00)" style="fill:#000000;stroke:none;stroke-width:1.00">
<g bizzsemantic="33954"  bizzid="b029140b-5261-e911-8237-0693944ba3ce"><g style="fill-opacity:0;stroke-opacity:0"><rect x="0.00" y="0.00" width="40.00" height="30.00"/>
</g><g transform=" translate(0.000000, 0.000000) scale(0.784314,0.588235) translate(-6.000000, -7.000000)">
<path d="m 30.5,41.3 c 0.1,0.4 0.1,0.8 0.1,1.2 0,2.2 -0.8,4.2 -2.4,5.7 L 25,51.4 c -1.5,1.5 -3.6,2.4 -5.7,2.4 -4.5,0 -8.1,-3.6 -8.1,-8.1 0,-2.2 0.8,-4.2 2.4,-5.7 l 3.2,-3.2 c 1.5,-1.5 3.6,-2.4 5.8,-2.4 0.4,0 0.8,0.1 1.2,0.1 L 26.3,32 c -1.2,-0.4 -2.4,-0.6 -3.7,-0.6 -3,0 -5.8,1.2 -7.9,3.3 l -3.2,3.2 c -2.1,2.1 -3.3,4.9 -3.3,7.9 0,6.1 5,11.1 11.1,11.1 3,0 5.8,-1.2 7.9,-3.3 l 3.2,-3.2 c 2.1,-2.1 3.3,-4.9 3.3,-7.9 0,-1.3 -0.2,-2.5 -0.6,-3.7 l -2.6,2.5"/>
<path d="m 44.9,9 c -3,0 -5.8,1.2 -7.9,3.3 l -3.2,3.2 c -2.1,2.1 -3.3,4.9 -3.3,7.9 0,1.3 0.2,2.5 0.6,3.7 l 2.5,-2.5 c -0.1,-0.4 -0.1,-0.8 -0.1,-1.2 0,-2.2 0.8,-4.2 2.4,-5.7 l 3.2,-3.2 c 1.5,-1.5 3.6,-2.4 5.8,-2.4 4.5,0 8.1,3.6 8.1,8.1 0,2.2 -0.8,4.2 -2.4,5.7 l -3.2,3.2 c -1.5,1.5 -3.6,2.4 -5.7,2.4 -0.4,0 -0.8,-0.1 -1.2,-0.1 L 38,33.8 c 1.2,0.4 2.4,0.6 3.7,0.6 3,0 5.8,-1.2 7.9,-3.3 l 3.2,-3.2 C 54.9,25.8 56.1,23 56.1,20 56,14 51,9 44.9,9"/>
<path d="m 24.1,42.5 c -0.4,0 -0.8,-0.2 -1.1,-0.5 -0.6,-0.6 -0.6,-1.6 0,-2.3 l 16,-16 c 0.6,-0.6 1.6,-0.6 2.3,0 0.6,0.6 0.6,1.6 0,2.3 l -16,16 c -0.4,0.4 -0.8,0.5 -1.2,0.5"/>
</g>
</g>
</g>
</g>
<use xlink:href="#object324896-lvl"></use>
</g>
<g bizzid="325197" bizzconcept="ViewHyperlink" bizztype="node" bizzsymbol="rectangle">
<g class="object325197">
<rect x="50.00" y="540.00" width="440.00" height="170.00"/>
</g>
<use xlink:href="#object325197-report"></use>
<g bizzid="icon325197" bizzconcept="icon" bizztype="node" bizzsymbol="link-icon">
<g class="icon325197" transform=" translate(450.000000, 550.000000) scale(0.109890,0.145631) translate(-98.000000, -230.000000)">
<use xlink:href="#symbol-link-icon"></use>
</g>
</g>
<g bizzid="label325197" bizzconcept="label" bizztype="text" bizzsymbol="text">
<g font-family="arial" font-size="35.28" fill="#0000ff">
<text x="100.50" y="616.00" text-decoration="underline">Guideline Compliance </text>
<text x="242.50" y="657.00" text-decoration="underline">API</text>
</g>
<g transform="translate(100.50, 584.00)">
<a xlink:href="https://portal.bian.org/service-domain-api/BIAN-14.0.0-GuidelineCompliance" target="_blank">	<rect fill-opacity="0" stroke="none" x="-50.50" y="-44.00" width="440.00" height="170.00"/></a>
</g>
</g>
<use xlink:href="#object325197-lvl"></use>
</g>
</g>
<use xlink:href="#foreground"></use>
</g>
</svg>
