<?xml version="1.0" encoding="UTF-8" standalone="no"?>
<svg version="1.1" xmlns="http://www.w3.org/2000/svg" xmlns:xlink="http://www.w3.org/1999/xlink" bizzid="42956" width="33.21cm" height="17.63cm" viewBox="0 0 3321.00 1763.00" preserveAspectRatio="none" style="margin-left:auto;margin-right:auto;display:block;">
<defs>
<g id="symbol-MetaModels/UML/UML_ClassDiagram">
<g fill="#ffffff" fill-opacity="0" stroke="#000000" stroke-dasharray="16, 4" stroke-opacity="0" stroke-width="3">
<rect x="2" y="2" width="420" height="420"></rect>
</g>
<g fill="#ffffff" stroke="#000000" stroke-width="18">
<rect x="20" y="20" width="184" height="180"></rect>
<g transform="translate(20 20)">
<rect width="184" height="60" fill="#ffff80"></rect>
<path d="m0 120h184" fill="none"></path>
</g>
</g>
<g fill="#ffffff" stroke="#000000" stroke-width="18">
<rect x="220" y="220" width="184" height="180"></rect>
<g transform="translate(220 220)">
<rect width="184" height="60" fill="#ffff80"></rect>
<path d="m0 120h184" fill="none"></path>
</g>
</g>
<g fill="#ffffff" stroke="#000000" stroke-width="12">
<path d="m100 200v140q0 20 20 20h100" fill="none" stroke-linejoin="round" stroke-miterlimit="1"></path>
</g>
<g fill="#ffffff" stroke="#000000" stroke-width="12">
<path d="m204 60h96q20 0 20 20v140" fill="none" stroke-linejoin="round" stroke-miterlimit="1"></path>
</g>
</g>
<g id="symbol-node-icon">
<path d="M 220,332.36218 L 160,372.36218 L 160,532.36218 L 320,532.36218 L 380,492.36218 L 380,332.36218 L 220,332.36218 z"></path>
<path d="M 160,372.36218 L 320,372.36218 L 320,532.36218"></path>
<path d="M 320,372.36218 L 380,332.36218"></path>
</g>
<g id="symbol-plus-icon">
<path style="fill:none" d="m50,0 0,100"></path>
<path style="fill:none" d="m0,50 100,0"></path>
</g>
</defs>
<style>
.object194510 {stroke:#000000;stroke-width:6.00}
.object194484 {stroke:#7d7d7d;stroke-width:6.00}
.object194487 {stroke:#000000;stroke-width:6.00}
.object194512 {stroke:#000000;stroke-width:6.00}
.object194536 {stroke:#000000;stroke-width:6.00}
.object194554 {stroke:#7d7d7d;stroke-width:6.00}
.object194499 {stroke:#000000;stroke-width:6.00}
.object194523 {stroke:#7d7d7d;stroke-width:6.00}
.object194481 {stroke:#7d7d7d;stroke-width:6.00}
.object194500 {stroke:#000000;stroke-width:6.00}
.object194502 {stroke:#000000;stroke-width:6.00}
.object194549 {stroke:#000000;stroke-width:6.00}
.icon194493 {fill:none;stroke:#000000;stroke-width:18.80}
.icon194541 {fill:none;stroke:#000000;stroke-width:18.80}
.icon194513 {fill:none;stroke:#000000;stroke-width:18.80}
.object194515 {fill:#eae8e8;stroke:#c47474;stroke-width:6.00}
.object194547 {fill:#80ffff;fill-opacity:0.00;stroke:none;stroke-width:3.00}
.object194551 {fill:#80ffff;fill-opacity:0.00;stroke:none;stroke-width:3.00}
.object194545 {fill:#80ffff;fill-opacity:0.00;stroke:none;stroke-width:3.00}
.object194513 {fill:#e1e1e1;stroke:#bbbbbb;stroke-width:6.00}
.object194529 {fill:#eae8e8;stroke:#c47474;stroke-width:6.00}
.object194525 {fill:#ffffff;stroke:#d9d9d9;stroke-width:6.00}
.object194539 {fill:#ffffff;stroke:#d9d9d9;stroke-width:6.00}
.object194552 {fill:#80ffff;fill-opacity:0.00;stroke:none;stroke-width:3.00}
.object194506 {fill:#eae8e8;stroke:#c47474;stroke-width:6.00}
.object194543 {fill:#ffffff;stroke:#d9d9d9;stroke-width:6.00}
.object194483 {fill:#ffffff;stroke:#d9d9d9;stroke-width:6.00}
.object194542 {fill:#eae8e8;stroke:#c47474;stroke-width:6.00}
.object194485 {fill:#80ffff;stroke:#16d9d9;stroke-width:3.00;stroke-dasharray:16.00,4.00}
.object194544 {fill:#80ffff;fill-opacity:0.00;stroke:none;stroke-width:3.00}
.object194492 {fill:#ffffff;stroke:#d9d9d9;stroke-width:6.00}
.object194493 {fill:#e1e1e1;stroke:#bbbbbb;stroke-width:6.00}
.object194541 {fill:#e1e1e1;stroke:#bbbbbb;stroke-width:6.00}
.object194555 {fill:#80ffff;stroke:#16d9d9;stroke-width:3.00;stroke-dasharray:16.00,4.00}
.object194482 {fill:#80ffff;stroke:#16d9d9;stroke-width:3.00;stroke-dasharray:16.00,4.00}
.object194524 {fill:#80ffff;stroke:#16d9d9;stroke-width:3.00;stroke-dasharray:16.00,4.00}
.object194486 {fill:#ffffff;stroke:#d9d9d9;stroke-width:6.00}
</style>
<defs>
</defs>
<g>
<use xlink:href="#background"></use>
<g bizzid="42956" bizzconcept="Canvas" bizztype="">
<g bizzid="194525" bizzsemantic="47330" bizzconcept="UML_Class" bizztype="node" bizzsymbol="rectangle">
<g>
<g class="object194525">
<rect x="1640.00" y="920.00" width="616.00" height="180.00"></rect>
</g>
<g transform="translate(1640.00, 920.00)" class="object194525">
<rect style="fill:#ffff80;fillOpacity:0.5" x="0" y="0" width="616.000" height="60"></rect>
</g>
</g>
<use xlink:href="#object194525-report"></use>
<g bizzid="label194525" bizzconcept="label" bizztype="text" bizzsymbol="text">
<g font-family="Arial" font-size="35.28" fill="#000000">
<text x="1759.50" y="962.00">Legal Compliance Check</text>
</g>
</g>
<g bizzid="194552" bizzsemantic="194553" bizzconcept="UML_Attribute" bizztype="node" bizzsymbol="rectangle">
<g class="object194552">
<rect x="1740.00" y="990.00" width="456.00" height="60.00"></rect>
</g>
<g style="fill:#ffffff;fill-opacity:0.00;stroke:#000000;stroke-width:20.83" transform=" translate(1660.000000, 1008.000000) scale(0.240000,0.240000) translate(-0.000000, -0.000000)">
<use xlink:href="#symbol-plus-icon"></use>
</g>
<g style="fill:#80ffff;stroke:#000000;stroke-width:13.44" transform=" translate(1698.000000, 1008.000000) scale(0.179372,0.118227) translate(-158.000000, -330.000000)">
<use xlink:href="#symbol-node-icon"></use>
</g>
<use xlink:href="#object194552-report"></use>
<g bizzid="label194552" bizzconcept="label" bizztype="text" bizzsymbol="text">
<g font-family="Arial" font-size="35.28" fill="#000000">
<text x="1750.00" y="1031.50">Legal Compliance Check Type : String</text>
</g>
</g>
<use xlink:href="#object194552-lvl"></use>
</g>
<g>
<g style="fill:#000000;stroke:none;stroke-width:1.00">
</g>
<g transform="translate(2206.00, 1060.00)" style="fill:#000000;stroke:none;stroke-width:1.00">
<g bizzsemantic="47329" bizzid="93d95a16-15dc-ea11-82b8-060197b50cc2"><g style="fill-opacity:0;stroke-opacity:0"><rect x="0.00" y="0.00" width="40.00" height="30.00"></rect>
</g><g transform=" translate(0.000000, 0.000000) scale(0.784314,0.588235) translate(-6.000000, -7.000000)">
<path d="m 30.5,41.3 c 0.1,0.4 0.1,0.8 0.1,1.2 0,2.2 -0.8,4.2 -2.4,5.7 L 25,51.4 c -1.5,1.5 -3.6,2.4 -5.7,2.4 -4.5,0 -8.1,-3.6 -8.1,-8.1 0,-2.2 0.8,-4.2 2.4,-5.7 l 3.2,-3.2 c 1.5,-1.5 3.6,-2.4 5.8,-2.4 0.4,0 0.8,0.1 1.2,0.1 L 26.3,32 c -1.2,-0.4 -2.4,-0.6 -3.7,-0.6 -3,0 -5.8,1.2 -7.9,3.3 l -3.2,3.2 c -2.1,2.1 -3.3,4.9 -3.3,7.9 0,6.1 5,11.1 11.1,11.1 3,0 5.8,-1.2 7.9,-3.3 l 3.2,-3.2 c 2.1,-2.1 3.3,-4.9 3.3,-7.9 0,-1.3 -0.2,-2.5 -0.6,-3.7 l -2.6,2.5"></path>
<path d="m 44.9,9 c -3,0 -5.8,1.2 -7.9,3.3 l -3.2,3.2 c -2.1,2.1 -3.3,4.9 -3.3,7.9 0,1.3 0.2,2.5 0.6,3.7 l 2.5,-2.5 c -0.1,-0.4 -0.1,-0.8 -0.1,-1.2 0,-2.2 0.8,-4.2 2.4,-5.7 l 3.2,-3.2 c 1.5,-1.5 3.6,-2.4 5.8,-2.4 4.5,0 8.1,3.6 8.1,8.1 0,2.2 -0.8,4.2 -2.4,5.7 l -3.2,3.2 c -1.5,1.5 -3.6,2.4 -5.7,2.4 -0.4,0 -0.8,-0.1 -1.2,-0.1 L 38,33.8 c 1.2,0.4 2.4,0.6 3.7,0.6 3,0 5.8,-1.2 7.9,-3.3 l 3.2,-3.2 C 54.9,25.8 56.1,23 56.1,20 56,14 51,9 44.9,9"></path>
<path d="m 24.1,42.5 c -0.4,0 -0.8,-0.2 -1.1,-0.5 -0.6,-0.6 -0.6,-1.6 0,-2.3 l 16,-16 c 0.6,-0.6 1.6,-0.6 2.3,0 0.6,0.6 0.6,1.6 0,2.3 l -16,16 c -0.4,0.4 -0.8,0.5 -1.2,0.5"></path>
</g>
</g>
</g>
</g>
<use xlink:href="#object194525-lvl"></use>
</g>
<g bizzid="194483" bizzsemantic="42875" bizzconcept="UML_Class" bizztype="node" bizzsymbol="rectangle">
<g>
<g class="object194483">
<rect x="1640.00" y="220.00" width="400.00" height="180.00"></rect>
</g>
<g transform="translate(1640.00, 220.00)" class="object194483">
<rect style="fill:#ffff80;fillOpacity:0.5" x="0" y="0" width="400.000" height="60"></rect>
</g>
</g>
<use xlink:href="#object194483-report"></use>
<g bizzid="label194483" bizzconcept="label" bizztype="text" bizzsymbol="text">
<g font-family="Arial" font-size="35.28" fill="#000000">
<text x="1745.50" y="262.00">Assessment</text>
</g>
</g>
<g>
<g style="fill:#000000;stroke:none;stroke-width:1.00">
</g>
<g transform="translate(1990.00, 360.00)" style="fill:#000000;stroke:none;stroke-width:1.00">
<g bizzsemantic="42874" bizzid="35db5a16-15dc-ea11-82b8-060197b50cc2"><g style="fill-opacity:0;stroke-opacity:0"><rect x="0.00" y="0.00" width="40.00" height="30.00"></rect>
</g><g transform=" translate(0.000000, 0.000000) scale(0.784314,0.588235) translate(-6.000000, -7.000000)">
<path d="m 30.5,41.3 c 0.1,0.4 0.1,0.8 0.1,1.2 0,2.2 -0.8,4.2 -2.4,5.7 L 25,51.4 c -1.5,1.5 -3.6,2.4 -5.7,2.4 -4.5,0 -8.1,-3.6 -8.1,-8.1 0,-2.2 0.8,-4.2 2.4,-5.7 l 3.2,-3.2 c 1.5,-1.5 3.6,-2.4 5.8,-2.4 0.4,0 0.8,0.1 1.2,0.1 L 26.3,32 c -1.2,-0.4 -2.4,-0.6 -3.7,-0.6 -3,0 -5.8,1.2 -7.9,3.3 l -3.2,3.2 c -2.1,2.1 -3.3,4.9 -3.3,7.9 0,6.1 5,11.1 11.1,11.1 3,0 5.8,-1.2 7.9,-3.3 l 3.2,-3.2 c 2.1,-2.1 3.3,-4.9 3.3,-7.9 0,-1.3 -0.2,-2.5 -0.6,-3.7 l -2.6,2.5"></path>
<path d="m 44.9,9 c -3,0 -5.8,1.2 -7.9,3.3 l -3.2,3.2 c -2.1,2.1 -3.3,4.9 -3.3,7.9 0,1.3 0.2,2.5 0.6,3.7 l 2.5,-2.5 c -0.1,-0.4 -0.1,-0.8 -0.1,-1.2 0,-2.2 0.8,-4.2 2.4,-5.7 l 3.2,-3.2 c 1.5,-1.5 3.6,-2.4 5.8,-2.4 4.5,0 8.1,3.6 8.1,8.1 0,2.2 -0.8,4.2 -2.4,5.7 l -3.2,3.2 c -1.5,1.5 -3.6,2.4 -5.7,2.4 -0.4,0 -0.8,-0.1 -1.2,-0.1 L 38,33.8 c 1.2,0.4 2.4,0.6 3.7,0.6 3,0 5.8,-1.2 7.9,-3.3 l 3.2,-3.2 C 54.9,25.8 56.1,23 56.1,20 56,14 51,9 44.9,9"></path>
<path d="m 24.1,42.5 c -0.4,0 -0.8,-0.2 -1.1,-0.5 -0.6,-0.6 -0.6,-1.6 0,-2.3 l 16,-16 c 0.6,-0.6 1.6,-0.6 2.3,0 0.6,0.6 0.6,1.6 0,2.3 l -16,16 c -0.4,0.4 -0.8,0.5 -1.2,0.5"></path>
</g>
</g>
</g>
</g>
<use xlink:href="#object194483-lvl"></use>
</g>
<g bizzid="194492" bizzsemantic="28970" bizzconcept="UML_Class" bizztype="node" bizzsymbol="rectangle">
<g>
<g class="object194492">
<rect x="800.00" y="220.00" width="400.00" height="180.00"></rect>
</g>
<g transform="translate(800.00, 220.00)" class="object194492">
<rect style="fill:#ffff80;fillOpacity:0.5" x="0" y="0" width="400.000" height="60"></rect>
</g>
</g>
<use xlink:href="#object194492-report"></use>
<g bizzid="label194492" bizzconcept="label" bizztype="text" bizzsymbol="text">
<g font-family="Arial" font-size="35.28" fill="#000000">
<text x="966.50" y="262.00">Test</text>
</g>
</g>
<g>
<g style="fill:#000000;stroke:none;stroke-width:1.00">
</g>
<g transform="translate(1150.00, 360.00)" style="fill:#000000;stroke:none;stroke-width:1.00">
<g bizzsemantic="28969" bizzid="a3d95a16-15dc-ea11-82b8-060197b50cc2"><g style="fill-opacity:0;stroke-opacity:0"><rect x="0.00" y="0.00" width="40.00" height="30.00"></rect>
</g><g transform=" translate(0.000000, 0.000000) scale(0.784314,0.588235) translate(-6.000000, -7.000000)">
<path d="m 30.5,41.3 c 0.1,0.4 0.1,0.8 0.1,1.2 0,2.2 -0.8,4.2 -2.4,5.7 L 25,51.4 c -1.5,1.5 -3.6,2.4 -5.7,2.4 -4.5,0 -8.1,-3.6 -8.1,-8.1 0,-2.2 0.8,-4.2 2.4,-5.7 l 3.2,-3.2 c 1.5,-1.5 3.6,-2.4 5.8,-2.4 0.4,0 0.8,0.1 1.2,0.1 L 26.3,32 c -1.2,-0.4 -2.4,-0.6 -3.7,-0.6 -3,0 -5.8,1.2 -7.9,3.3 l -3.2,3.2 c -2.1,2.1 -3.3,4.9 -3.3,7.9 0,6.1 5,11.1 11.1,11.1 3,0 5.8,-1.2 7.9,-3.3 l 3.2,-3.2 c 2.1,-2.1 3.3,-4.9 3.3,-7.9 0,-1.3 -0.2,-2.5 -0.6,-3.7 l -2.6,2.5"></path>
<path d="m 44.9,9 c -3,0 -5.8,1.2 -7.9,3.3 l -3.2,3.2 c -2.1,2.1 -3.3,4.9 -3.3,7.9 0,1.3 0.2,2.5 0.6,3.7 l 2.5,-2.5 c -0.1,-0.4 -0.1,-0.8 -0.1,-1.2 0,-2.2 0.8,-4.2 2.4,-5.7 l 3.2,-3.2 c 1.5,-1.5 3.6,-2.4 5.8,-2.4 4.5,0 8.1,3.6 8.1,8.1 0,2.2 -0.8,4.2 -2.4,5.7 l -3.2,3.2 c -1.5,1.5 -3.6,2.4 -5.7,2.4 -0.4,0 -0.8,-0.1 -1.2,-0.1 L 38,33.8 c 1.2,0.4 2.4,0.6 3.7,0.6 3,0 5.8,-1.2 7.9,-3.3 l 3.2,-3.2 C 54.9,25.8 56.1,23 56.1,20 56,14 51,9 44.9,9"></path>
<path d="m 24.1,42.5 c -0.4,0 -0.8,-0.2 -1.1,-0.5 -0.6,-0.6 -0.6,-1.6 0,-2.3 l 16,-16 c 0.6,-0.6 1.6,-0.6 2.3,0 0.6,0.6 0.6,1.6 0,2.3 l -16,16 c -0.4,0.4 -0.8,0.5 -1.2,0.5"></path>
</g>
</g>
</g>
</g>
<use xlink:href="#object194492-lvl"></use>
</g>
<g bizzid="194499" bizzsemantic="60369" bizzconcept="UML_Association" bizztype="relation" bizzsymbol="link">
<g>
<g class="object194499">
<path style="fill:none;stroke-miterlimit:1.0;stroke-linejoin:round" d="M 1640.00 310.00 L 1200.00 310.00"></path>
</g>
<g transform="translate(1640.00, 310.00) rotate(90.000000) translate(-1640.00, -310.00)">
<g style="fill:#ffffff;stroke:#000000;stroke-width:6.00">
<path style="stroke-linejoin:round" d="M 1640.00 310.00 L 1660.00, 340.00 L 1640.00 370.00 L 1620.00 340.00 z"></path>
</g>
</g>
</g>
<g style="fill:#ffffff;fill-opacity:0.00;stroke:none;stroke-width:0.00">
<rect x="1526.00" y="212.00" width="108.00" height="77.00"></rect>
</g>
<g style="fill:#ffffff;fill-opacity:0.00;stroke:none;stroke-width:0.00">
<rect x="1209.00" y="332.00" width="103.00" height="77.00"></rect>
</g>
<g style="fill:#ffffff;fill-opacity:0.00;stroke:none;stroke-width:0.00">
<ellipse cx="1620.00" cy="310.00" rx="20.00" ry="20.00"></ellipse>
</g>
<g style="fill:#ffffff;fill-opacity:0.00;stroke:none;stroke-width:0.00">
<ellipse cx="1220.00" cy="310.00" rx="20.00" ry="20.00"></ellipse>
</g>
<use xlink:href="#object194499-report"></use>
<g style="fill:#ffffff;fill-opacity:0.00;stroke:none;stroke-width:0.00">
<rect x="1536.00" y="222.00" width="88.00" height="57.00"></rect>
</g>
<g font-family="Arial" font-size="35.28" fill="#000000">
<text x="1546.00" y="262.00">0..1</text>
</g>
<g style="fill:#ffffff;fill-opacity:0.00;stroke:none;stroke-width:0.00">
<rect x="1219.00" y="342.00" width="83.00" height="57.00"></rect>
</g>
<g font-family="Arial" font-size="35.28" fill="#000000">
<text x="1229.00" y="382.00">0..*</text>
</g>
<use xlink:href="#object194499-lvl"></use>
</g>
<g bizzid="194543" bizzsemantic="36149" bizzconcept="UML_Class" bizztype="node" bizzsymbol="rectangle">
<g>
<g class="object194543">
<rect x="640.00" y="1340.00" width="720.00" height="320.00"></rect>
</g>
<g transform="translate(640.00, 1340.00)" class="object194543">
<rect style="fill:#ffff80;fillOpacity:0.5" x="0" y="0" width="720.000" height="60"></rect>
</g>
</g>
<use xlink:href="#object194543-report"></use>
<g bizzid="label194543" bizzconcept="label" bizztype="text" bizzsymbol="text">
<g font-family="Arial" font-size="35.28" fill="#000000">
<text x="969.00" y="1382.00">Law</text>
</g>
</g>
<g bizzid="194544" bizzsemantic="94562" bizzconcept="UML_Attribute" bizztype="node" bizzsymbol="rectangle">
<g class="object194544">
<rect x="740.00" y="1410.00" width="257.00" height="60.00"></rect>
</g>
<g style="fill:#ffffff;fill-opacity:0.00;stroke:#000000;stroke-width:20.83" transform=" translate(660.000000, 1428.000000) scale(0.240000,0.240000) translate(-0.000000, -0.000000)">
<use xlink:href="#symbol-plus-icon"></use>
</g>
<g style="fill:#80ffff;stroke:#000000;stroke-width:13.44" transform=" translate(698.000000, 1428.000000) scale(0.179372,0.118227) translate(-158.000000, -330.000000)">
<use xlink:href="#symbol-node-icon"></use>
</g>
<use xlink:href="#object194544-report"></use>
<g bizzid="label194544" bizzconcept="label" bizztype="text" bizzsymbol="text">
<g font-family="Arial" font-size="35.28" fill="#000000">
<text x="750.00" y="1451.50">Law Type : Text</text>
</g>
</g>
<use xlink:href="#object194544-lvl"></use>
</g>
<g bizzid="194545" bizzsemantic="94560" bizzconcept="UML_Attribute" bizztype="node" bizzsymbol="rectangle">
<g class="object194545">
<rect x="740.00" y="1470.00" width="257.00" height="60.00"></rect>
</g>
<g style="fill:#ffffff;fill-opacity:0.00;stroke:#000000;stroke-width:20.83" transform=" translate(660.000000, 1488.000000) scale(0.240000,0.240000) translate(-0.000000, -0.000000)">
<use xlink:href="#symbol-plus-icon"></use>
</g>
<g style="fill:#80ffff;stroke:#000000;stroke-width:13.44" transform=" translate(698.000000, 1488.000000) scale(0.179372,0.118227) translate(-158.000000, -330.000000)">
<use xlink:href="#symbol-node-icon"></use>
</g>
<use xlink:href="#object194545-report"></use>
<g bizzid="label194545" bizzconcept="label" bizztype="text" bizzsymbol="text">
<g font-family="Arial" font-size="35.28" fill="#000000">
<text x="750.00" y="1511.50">Law Description : Text</text>
</g>
</g>
<use xlink:href="#object194545-lvl"></use>
</g>
<g bizzid="194551" bizzsemantic="94548" bizzconcept="UML_Attribute" bizztype="node" bizzsymbol="rectangle">
<g class="object194551">
<rect x="740.00" y="1530.00" width="257.00" height="60.00"></rect>
</g>
<g style="fill:#ffffff;fill-opacity:0.00;stroke:#000000;stroke-width:20.83" transform=" translate(660.000000, 1548.000000) scale(0.240000,0.240000) translate(-0.000000, -0.000000)">
<use xlink:href="#symbol-plus-icon"></use>
</g>
<g style="fill:#80ffff;stroke:#000000;stroke-width:13.44" transform=" translate(698.000000, 1548.000000) scale(0.179372,0.118227) translate(-158.000000, -330.000000)">
<use xlink:href="#symbol-node-icon"></use>
</g>
<use xlink:href="#object194551-report"></use>
<g bizzid="label194551" bizzconcept="label" bizztype="text" bizzsymbol="text">
<g font-family="Arial" font-size="35.28" fill="#000000">
<text x="750.00" y="1571.50">Legal Penalty : Text</text>
</g>
</g>
<use xlink:href="#object194551-lvl"></use>
</g>
<g bizzid="194547" bizzsemantic="94537" bizzconcept="UML_Attribute" bizztype="node" bizzsymbol="rectangle">
<g class="object194547">
<rect x="740.00" y="1590.00" width="257.00" height="60.00"></rect>
</g>
<g style="fill:#ffffff;fill-opacity:0.00;stroke:#000000;stroke-width:20.83" transform=" translate(660.000000, 1608.000000) scale(0.240000,0.240000) translate(-0.000000, -0.000000)">
<use xlink:href="#symbol-plus-icon"></use>
</g>
<g style="fill:#80ffff;stroke:#000000;stroke-width:13.44" transform=" translate(698.000000, 1608.000000) scale(0.179372,0.118227) translate(-158.000000, -330.000000)">
<use xlink:href="#symbol-node-icon"></use>
</g>
<use xlink:href="#object194547-report"></use>
<g bizzid="label194547" bizzconcept="label" bizztype="text" bizzsymbol="text">
<g font-family="Arial" font-size="35.28" fill="#000000">
<text x="750.00" y="1631.50">Legal Guideline : Text</text>
</g>
</g>
<use xlink:href="#object194547-lvl"></use>
</g>
<g>
<g style="fill:#000000;stroke:none;stroke-width:1.00">
</g>
<g transform="translate(1310.00, 1620.00)" style="fill:#000000;stroke:none;stroke-width:1.00">
<g bizzsemantic="36148" bizzid="28e66e02-7054-e911-8237-0676108d3cb6"><g style="fill-opacity:0;stroke-opacity:0"><rect x="0.00" y="0.00" width="40.00" height="30.00"></rect>
</g><g transform=" translate(0.000000, 0.000000) scale(0.784314,0.588235) translate(-6.000000, -7.000000)">
<path d="m 30.5,41.3 c 0.1,0.4 0.1,0.8 0.1,1.2 0,2.2 -0.8,4.2 -2.4,5.7 L 25,51.4 c -1.5,1.5 -3.6,2.4 -5.7,2.4 -4.5,0 -8.1,-3.6 -8.1,-8.1 0,-2.2 0.8,-4.2 2.4,-5.7 l 3.2,-3.2 c 1.5,-1.5 3.6,-2.4 5.8,-2.4 0.4,0 0.8,0.1 1.2,0.1 L 26.3,32 c -1.2,-0.4 -2.4,-0.6 -3.7,-0.6 -3,0 -5.8,1.2 -7.9,3.3 l -3.2,3.2 c -2.1,2.1 -3.3,4.9 -3.3,7.9 0,6.1 5,11.1 11.1,11.1 3,0 5.8,-1.2 7.9,-3.3 l 3.2,-3.2 c 2.1,-2.1 3.3,-4.9 3.3,-7.9 0,-1.3 -0.2,-2.5 -0.6,-3.7 l -2.6,2.5"></path>
<path d="m 44.9,9 c -3,0 -5.8,1.2 -7.9,3.3 l -3.2,3.2 c -2.1,2.1 -3.3,4.9 -3.3,7.9 0,1.3 0.2,2.5 0.6,3.7 l 2.5,-2.5 c -0.1,-0.4 -0.1,-0.8 -0.1,-1.2 0,-2.2 0.8,-4.2 2.4,-5.7 l 3.2,-3.2 c 1.5,-1.5 3.6,-2.4 5.8,-2.4 4.5,0 8.1,3.6 8.1,8.1 0,2.2 -0.8,4.2 -2.4,5.7 l -3.2,3.2 c -1.5,1.5 -3.6,2.4 -5.7,2.4 -0.4,0 -0.8,-0.1 -1.2,-0.1 L 38,33.8 c 1.2,0.4 2.4,0.6 3.7,0.6 3,0 5.8,-1.2 7.9,-3.3 l 3.2,-3.2 C 54.9,25.8 56.1,23 56.1,20 56,14 51,9 44.9,9"></path>
<path d="m 24.1,42.5 c -0.4,0 -0.8,-0.2 -1.1,-0.5 -0.6,-0.6 -0.6,-1.6 0,-2.3 l 16,-16 c 0.6,-0.6 1.6,-0.6 2.3,0 0.6,0.6 0.6,1.6 0,2.3 l -16,16 c -0.4,0.4 -0.8,0.5 -1.2,0.5"></path>
</g>
</g>
</g>
</g>
<use xlink:href="#object194543-lvl"></use>
</g>
<g bizzid="194542" bizzsemantic="32915" bizzconcept="UML_Class" bizztype="node" bizzsymbol="rectangle">
<g>
<g class="object194542">
<rect x="980.00" y="700.00" width="400.00" height="180.00"></rect>
</g>
<g transform="translate(980.00, 700.00)" class="object194542">
<rect style="fill:#ffff80;fillOpacity:0.5" x="0" y="0" width="400.000" height="60"></rect>
</g>
</g>
<use xlink:href="#object194542-report"></use>
<g bizzid="label194542" bizzconcept="label" bizztype="text" bizzsymbol="text">
<g font-family="Arial" font-size="35.28" fill="#000000">
<text x="1115.00" y="742.00">Rule Set</text>
</g>
</g>
<g>
<g style="fill:#000000;stroke:none;stroke-width:1.00">
</g>
<g transform="translate(1330.00, 840.00)" style="fill:#000000;stroke:none;stroke-width:1.00">
<g bizzsemantic="32914" bizzid="45e66e02-7054-e911-8237-0676108d3cb6"><g style="fill-opacity:0;stroke-opacity:0"><rect x="0.00" y="0.00" width="40.00" height="30.00"></rect>
</g><g transform=" translate(0.000000, 0.000000) scale(0.784314,0.588235) translate(-6.000000, -7.000000)">
<path d="m 30.5,41.3 c 0.1,0.4 0.1,0.8 0.1,1.2 0,2.2 -0.8,4.2 -2.4,5.7 L 25,51.4 c -1.5,1.5 -3.6,2.4 -5.7,2.4 -4.5,0 -8.1,-3.6 -8.1,-8.1 0,-2.2 0.8,-4.2 2.4,-5.7 l 3.2,-3.2 c 1.5,-1.5 3.6,-2.4 5.8,-2.4 0.4,0 0.8,0.1 1.2,0.1 L 26.3,32 c -1.2,-0.4 -2.4,-0.6 -3.7,-0.6 -3,0 -5.8,1.2 -7.9,3.3 l -3.2,3.2 c -2.1,2.1 -3.3,4.9 -3.3,7.9 0,6.1 5,11.1 11.1,11.1 3,0 5.8,-1.2 7.9,-3.3 l 3.2,-3.2 c 2.1,-2.1 3.3,-4.9 3.3,-7.9 0,-1.3 -0.2,-2.5 -0.6,-3.7 l -2.6,2.5"></path>
<path d="m 44.9,9 c -3,0 -5.8,1.2 -7.9,3.3 l -3.2,3.2 c -2.1,2.1 -3.3,4.9 -3.3,7.9 0,1.3 0.2,2.5 0.6,3.7 l 2.5,-2.5 c -0.1,-0.4 -0.1,-0.8 -0.1,-1.2 0,-2.2 0.8,-4.2 2.4,-5.7 l 3.2,-3.2 c 1.5,-1.5 3.6,-2.4 5.8,-2.4 4.5,0 8.1,3.6 8.1,8.1 0,2.2 -0.8,4.2 -2.4,5.7 l -3.2,3.2 c -1.5,1.5 -3.6,2.4 -5.7,2.4 -0.4,0 -0.8,-0.1 -1.2,-0.1 L 38,33.8 c 1.2,0.4 2.4,0.6 3.7,0.6 3,0 5.8,-1.2 7.9,-3.3 l 3.2,-3.2 C 54.9,25.8 56.1,23 56.1,20 56,14 51,9 44.9,9"></path>
<path d="m 24.1,42.5 c -0.4,0 -0.8,-0.2 -1.1,-0.5 -0.6,-0.6 -0.6,-1.6 0,-2.3 l 16,-16 c 0.6,-0.6 1.6,-0.6 2.3,0 0.6,0.6 0.6,1.6 0,2.3 l -16,16 c -0.4,0.4 -0.8,0.5 -1.2,0.5"></path>
</g>
</g>
</g>
</g>
<use xlink:href="#object194542-lvl"></use>
</g>
<g bizzid="194512" bizzsemantic="94497" bizzconcept="UML_Generalization" bizztype="relation" bizzsymbol="link">
<g>
<g class="object194512">
<path style="fill:none;stroke-miterlimit:1.0;stroke-linejoin:round" d="M 1180.00 1340.00 L 1180.00 880.00"></path>
</g>
<g transform="translate(1180.00, 880.00) rotate(0.000003) translate(-1180.00, -880.00)">
<g style="fill:#ffffff;stroke:#000000;stroke-width:6.00">
<path style="stroke-linejoin:round" d="M 1180.00 880.00 l 20.00 60.00 l -40.00 0.00 z"></path>
</g>
</g>
</g>
<use xlink:href="#object194512-report"></use>
<use xlink:href="#object194512-lvl"></use>
</g>
<g bizzid="194493" bizzsemantic="52202" bizzconcept="UML_ClassDiagram" bizztype="node" bizzsymbol="rectangle">
<g class="object194493">
<rect x="930.00" y="560.00" width="500.00" height="80.00"></rect>
</g>
<use xlink:href="#object194493-report"></use>
<g bizzid="icon194493" bizzconcept="icon" bizztype="node" bizzsymbol="MetaModels/UML/UML_ClassDiagram">
<g class="icon194493" transform=" translate(1375.000000, 570.000000) scale(0.106383,0.106383) translate(-0.000000, -0.000000)">
<use xlink:href="#symbol-MetaModels/UML/UML_ClassDiagram"></use>
</g>
</g>
<g bizzid="label194493" bizzconcept="label" bizztype="text" bizzsymbol="text">
<g font-family="arial" font-size="31.75" fill="#000000">
<text x="1011.00" y="610.00">Rule Set Helper Diagram</text>
</g>
</g>
<use xlink:href="#object194493-lvl"></use>
</g>
<g bizzid="194486" bizzsemantic="32774" bizzconcept="UML_Class" bizztype="node" bizzsymbol="rectangle">
<g>
<g class="object194486">
<rect x="1680.00" y="1340.00" width="400.00" height="180.00"></rect>
</g>
<g transform="translate(1680.00, 1340.00)" class="object194486">
<rect style="fill:#ffff80;fillOpacity:0.5" x="0" y="0" width="400.000" height="60"></rect>
</g>
</g>
<use xlink:href="#object194486-report"></use>
<g bizzid="label194486" bizzconcept="label" bizztype="text" bizzsymbol="text">
<g font-family="Arial" font-size="35.28" fill="#000000">
<text x="1745.50" y="1382.00">Legal Compliance</text>
</g>
</g>
<g>
<g style="fill:#000000;stroke:none;stroke-width:1.00">
</g>
<g transform="translate(2030.00, 1480.00)" style="fill:#000000;stroke:none;stroke-width:1.00">
<g bizzsemantic="32773" bizzid="ebda5a16-15dc-ea11-82b8-060197b50cc2"><g style="fill-opacity:0;stroke-opacity:0"><rect x="0.00" y="0.00" width="40.00" height="30.00"></rect>
</g><g transform=" translate(0.000000, 0.000000) scale(0.784314,0.588235) translate(-6.000000, -7.000000)">
<path d="m 30.5,41.3 c 0.1,0.4 0.1,0.8 0.1,1.2 0,2.2 -0.8,4.2 -2.4,5.7 L 25,51.4 c -1.5,1.5 -3.6,2.4 -5.7,2.4 -4.5,0 -8.1,-3.6 -8.1,-8.1 0,-2.2 0.8,-4.2 2.4,-5.7 l 3.2,-3.2 c 1.5,-1.5 3.6,-2.4 5.8,-2.4 0.4,0 0.8,0.1 1.2,0.1 L 26.3,32 c -1.2,-0.4 -2.4,-0.6 -3.7,-0.6 -3,0 -5.8,1.2 -7.9,3.3 l -3.2,3.2 c -2.1,2.1 -3.3,4.9 -3.3,7.9 0,6.1 5,11.1 11.1,11.1 3,0 5.8,-1.2 7.9,-3.3 l 3.2,-3.2 c 2.1,-2.1 3.3,-4.9 3.3,-7.9 0,-1.3 -0.2,-2.5 -0.6,-3.7 l -2.6,2.5"></path>
<path d="m 44.9,9 c -3,0 -5.8,1.2 -7.9,3.3 l -3.2,3.2 c -2.1,2.1 -3.3,4.9 -3.3,7.9 0,1.3 0.2,2.5 0.6,3.7 l 2.5,-2.5 c -0.1,-0.4 -0.1,-0.8 -0.1,-1.2 0,-2.2 0.8,-4.2 2.4,-5.7 l 3.2,-3.2 c 1.5,-1.5 3.6,-2.4 5.8,-2.4 4.5,0 8.1,3.6 8.1,8.1 0,2.2 -0.8,4.2 -2.4,5.7 l -3.2,3.2 c -1.5,1.5 -3.6,2.4 -5.7,2.4 -0.4,0 -0.8,-0.1 -1.2,-0.1 L 38,33.8 c 1.2,0.4 2.4,0.6 3.7,0.6 3,0 5.8,-1.2 7.9,-3.3 l 3.2,-3.2 C 54.9,25.8 56.1,23 56.1,20 56,14 51,9 44.9,9"></path>
<path d="m 24.1,42.5 c -0.4,0 -0.8,-0.2 -1.1,-0.5 -0.6,-0.6 -0.6,-1.6 0,-2.3 l 16,-16 c 0.6,-0.6 1.6,-0.6 2.3,0 0.6,0.6 0.6,1.6 0,2.3 l -16,16 c -0.4,0.4 -0.8,0.5 -1.2,0.5"></path>
</g>
</g>
</g>
</g>
<use xlink:href="#object194486-lvl"></use>
</g>
<g bizzid="194487" bizzsemantic="194488" bizzconcept="UML_Association" bizztype="relation" bizzsymbol="link">
<g>
<g class="object194487">
<path style="fill:none;stroke-miterlimit:1.0;stroke-linejoin:round" d="M 1360.00 1440.00 L 1680.00 1440.00"></path>
</g>
</g>
<g style="fill:#ffffff;fill-opacity:0.00;stroke:none;stroke-width:0.00">
<rect x="1345.00" y="1337.00" width="237.00" height="118.00"></rect>
</g>
<g style="fill:#ffffff;fill-opacity:0.00;stroke:none;stroke-width:0.00">
<rect x="1366.00" y="1462.00" width="108.00" height="77.00"></rect>
</g>
<g style="fill:#ffffff;fill-opacity:0.00;stroke:none;stroke-width:0.00">
<rect x="1569.00" y="1342.00" width="103.00" height="77.00"></rect>
</g>
<g style="fill:#ffffff;fill-opacity:0.00;stroke:none;stroke-width:0.00">
<ellipse cx="1380.00" cy="1440.00" rx="20.00" ry="20.00"></ellipse>
</g>
<g style="fill:#ffffff;fill-opacity:0.00;stroke:none;stroke-width:0.00">
<ellipse cx="1660.00" cy="1440.00" rx="20.00" ry="20.00"></ellipse>
</g>
<use xlink:href="#object194487-report"></use>
<g style="fill:#ffffff;fill-opacity:0.00;stroke:none;stroke-width:0.00">
<rect x="1355.00" y="1347.00" width="40.00" height="57.00"></rect>
</g>
<g font-family="Arial" font-size="35.28" fill="#000000">
<text x="1365.00" y="1387.00">+</text>
</g>
<g style="fill:#ffffff;fill-opacity:0.00;stroke:none;stroke-width:0.00">
<rect x="1385.00" y="1347.00" width="187.00" height="98.00"></rect>
</g>
<g font-family="Arial" font-size="35.28" fill="#000000">
<text x="1395.00" y="1387.00">Confirmed
</text>
<text x="1395.00" y="1428.00">Law</text>
</g>
<g style="fill:#ffffff;fill-opacity:0.00;stroke:none;stroke-width:0.00">
<rect x="1376.00" y="1472.00" width="88.00" height="57.00"></rect>
</g>
<g font-family="Arial" font-size="35.28" fill="#000000">
<text x="1386.00" y="1512.00">0..1</text>
</g>
<g style="fill:#ffffff;fill-opacity:0.00;stroke:none;stroke-width:0.00">
<rect x="1579.00" y="1352.00" width="83.00" height="57.00"></rect>
</g>
<g font-family="Arial" font-size="35.28" fill="#000000">
<text x="1589.00" y="1392.00">0..*</text>
</g>
<use xlink:href="#object194487-lvl"></use>
</g>
<g bizzid="194510" bizzsemantic="194511" bizzconcept="UML_Association" bizztype="relation" bizzsymbol="link">
<g>
<g class="object194510">
<path style="fill:none;stroke-miterlimit:1.0;stroke-linejoin:round" d="M 1880.00 1340.00 L 1880.00 1100.00"></path>
</g>
</g>
<g style="fill:#ffffff;fill-opacity:0.00;stroke:none;stroke-width:0.00">
<rect x="1886.00" y="1242.00" width="108.00" height="77.00"></rect>
</g>
<g style="fill:#ffffff;fill-opacity:0.00;stroke:none;stroke-width:0.00">
<rect x="1769.00" y="1122.00" width="103.00" height="77.00"></rect>
</g>
<g style="fill:#ffffff;fill-opacity:0.00;stroke:none;stroke-width:0.00">
<ellipse cx="1880.00" cy="1320.00" rx="20.00" ry="20.00"></ellipse>
</g>
<g style="fill:#ffffff;fill-opacity:0.00;stroke:none;stroke-width:0.00">
<ellipse cx="1880.00" cy="1120.00" rx="20.00" ry="20.00"></ellipse>
</g>
<use xlink:href="#object194510-report"></use>
<g style="fill:#ffffff;fill-opacity:0.00;stroke:none;stroke-width:0.00">
<rect x="1896.00" y="1252.00" width="88.00" height="57.00"></rect>
</g>
<g font-family="Arial" font-size="35.28" fill="#000000">
<text x="1906.00" y="1292.00">0..1</text>
</g>
<g style="fill:#ffffff;fill-opacity:0.00;stroke:none;stroke-width:0.00">
<rect x="1779.00" y="1132.00" width="83.00" height="57.00"></rect>
</g>
<g font-family="Arial" font-size="35.28" fill="#000000">
<text x="1789.00" y="1172.00">0..*</text>
</g>
<use xlink:href="#object194510-lvl"></use>
</g>
<g bizzid="194524" bizzsemantic="194524" bizzconcept="ViewGraphic" bizztype="node" bizzsymbol="dogear">
<g class="object194524">
<path style="fill-rule:nonzero;stroke-linejoin:bevel" d="M 2560.00 825.00 L 2560.00 880.00 L 1980.00 880.00 L 1980.00 780.00 L 2515.00 780.00 L 2560.00 825.00 L 2515.00 825.00 L 2515.00 780.00 z"></path>
</g>
<use xlink:href="#object194524-report"></use>
<g bizzid="label194524" bizzconcept="label" bizztype="text" bizzsymbol="text">
<g font-family="arial" font-size="31.75" fill="#000000">
<text x="1990.00" y="818.00">ControlRecord: 
</text>
<text x="1990.00" y="854.00">Legal Compliance Assessmen
</text>
<text x="1990.00" y="890.00"></text>
</g>
</g>
<use xlink:href="#object194524-lvl"></use>
</g>
<g bizzid="194482" bizzsemantic="194482" bizzconcept="ViewGraphic" bizztype="node" bizzsymbol="dogear">
<g class="object194482">
<path style="fill-rule:nonzero;stroke-linejoin:bevel" d="M 2240.00 105.00 L 2240.00 160.00 L 1860.00 160.00 L 1860.00 60.00 L 2195.00 60.00 L 2240.00 105.00 L 2195.00 105.00 L 2195.00 60.00 z"></path>
</g>
<use xlink:href="#object194482-report"></use>
<g bizzid="label194482" bizzconcept="label" bizztype="text" bizzsymbol="text">
<g font-family="arial" font-size="31.75" fill="#000000">
<text x="1870.00" y="98.00">GenericArtifact:
</text>
<text x="1870.00" y="134.00">Assessment</text>
</g>
</g>
<use xlink:href="#object194482-lvl"></use>
</g>
<g bizzid="194555" bizzsemantic="194555" bizzconcept="ViewGraphic" bizztype="node" bizzsymbol="dogear">
<g class="object194555">
<path style="fill-rule:nonzero;stroke-linejoin:bevel" d="M 1070.00 105.00 L 1070.00 160.00 L 790.00 160.00 L 790.00 60.00 L 1025.00 60.00 L 1070.00 105.00 L 1025.00 105.00 L 1025.00 60.00 z"></path>
</g>
<use xlink:href="#object194555-report"></use>
<g bizzid="label194555" bizzconcept="label" bizztype="text" bizzsymbol="text">
<g font-family="arial" font-size="31.75" fill="#000000">
<text x="800.00" y="98.00">BQ Type: Tests</text>
</g>
</g>
<use xlink:href="#object194555-lvl"></use>
</g>
<g bizzid="194485" bizzsemantic="194485" bizzconcept="ViewGraphic" bizztype="node" bizzsymbol="dogear">
<g class="object194485">
<path style="fill-rule:nonzero;stroke-linejoin:bevel" d="M 2420.00 1165.00 L 2420.00 1220.00 L 2040.00 1220.00 L 2040.00 1120.00 L 2375.00 1120.00 L 2420.00 1165.00 L 2375.00 1165.00 L 2375.00 1120.00 z"></path>
</g>
<use xlink:href="#object194485-report"></use>
<g bizzid="label194485" bizzconcept="label" bizztype="text" bizzsymbol="text">
<g font-family="arial" font-size="31.75" fill="#000000">
<text x="2050.00" y="1158.00">AssetType: 
</text>
<text x="2050.00" y="1194.00">LegalCompliance</text>
</g>
</g>
<use xlink:href="#object194485-lvl"></use>
</g>
<g bizzid="194481" bizzconcept="ViewEdge" bizztype="relation" bizzsymbol="link">
<g>
<g class="object194481">
<path style="fill:none;stroke-miterlimit:1.0;stroke-linejoin:round" d="M 1900.00 160.00 L 1820.00 220.00"></path>
</g>
</g>
<use xlink:href="#object194481-report"></use>
<use xlink:href="#object194481-lvl"></use>
</g>
<g bizzid="194523" bizzconcept="ViewEdge" bizztype="relation" bizzsymbol="link">
<g>
<g class="object194523">
<path style="fill:none;stroke-miterlimit:1.0;stroke-linejoin:round" d="M 2180.00 880.00 L 2000.00 920.00"></path>
</g>
</g>
<use xlink:href="#object194523-report"></use>
<use xlink:href="#object194523-lvl"></use>
</g>
<g bizzid="194484" bizzconcept="ViewEdge" bizztype="relation" bizzsymbol="link">
<g>
<g class="object194484">
<path style="fill:none;stroke-miterlimit:1.0;stroke-linejoin:round" d="M 2280.00 1220.00 L 1980.00 1340.00"></path>
</g>
</g>
<use xlink:href="#object194484-report"></use>
<use xlink:href="#object194484-lvl"></use>
</g>
<g bizzid="194554" bizzconcept="ViewEdge" bizztype="relation" bizzsymbol="link">
<g>
<g class="object194554">
<path style="fill:none;stroke-miterlimit:1.0;stroke-linejoin:round" d="M 910.00 160.00 L 980.00 220.00"></path>
</g>
</g>
<use xlink:href="#object194554-report"></use>
<use xlink:href="#object194554-lvl"></use>
</g>
<g bizzid="194541" bizzsemantic="52292" bizzconcept="UML_ClassDiagram" bizztype="node" bizzsymbol="rectangle">
<g class="object194541">
<rect x="1180.00" y="70.00" width="560.00" height="80.00"></rect>
</g>
<use xlink:href="#object194541-report"></use>
<g bizzid="icon194541" bizzconcept="icon" bizztype="node" bizzsymbol="MetaModels/UML/UML_ClassDiagram">
<g class="icon194541" transform=" translate(1685.000000, 80.000000) scale(0.106383,0.106383) translate(-0.000000, -0.000000)">
<use xlink:href="#symbol-MetaModels/UML/UML_ClassDiagram"></use>
</g>
</g>
<g bizzid="label194541" bizzconcept="label" bizztype="text" bizzsymbol="text">
<g font-family="arial" font-size="31.75" fill="#000000">
<text x="1266.50" y="120.00">Assessment Helper Diagram</text>
</g>
</g>
<use xlink:href="#object194541-lvl"></use>
</g>
<g bizzid="194506" bizzsemantic="32625" bizzconcept="UML_Class" bizztype="node" bizzsymbol="rectangle">
<g>
<g class="object194506">
<rect x="530.00" y="920.00" width="400.00" height="180.00"></rect>
</g>
<g transform="translate(530.00, 920.00)" class="object194506">
<rect style="fill:#ffff80;fillOpacity:0.5" x="0" y="0" width="400.000" height="60"></rect>
</g>
</g>
<use xlink:href="#object194506-report"></use>
<g bizzid="label194506" bizzconcept="label" bizztype="text" bizzsymbol="text">
<g font-family="Arial" font-size="35.28" fill="#000000">
<text x="644.00" y="962.00">Jurisdiction</text>
</g>
</g>
<g>
<g style="fill:#000000;stroke:none;stroke-width:1.00">
</g>
<g transform="translate(880.00, 1060.00)" style="fill:#000000;stroke:none;stroke-width:1.00">
<g bizzsemantic="32624" bizzid="d3e56e02-7054-e911-8237-0676108d3cb6"><g style="fill-opacity:0;stroke-opacity:0"><rect x="0.00" y="0.00" width="40.00" height="30.00"></rect>
</g><g transform=" translate(0.000000, 0.000000) scale(0.784314,0.588235) translate(-6.000000, -7.000000)">
<path d="m 30.5,41.3 c 0.1,0.4 0.1,0.8 0.1,1.2 0,2.2 -0.8,4.2 -2.4,5.7 L 25,51.4 c -1.5,1.5 -3.6,2.4 -5.7,2.4 -4.5,0 -8.1,-3.6 -8.1,-8.1 0,-2.2 0.8,-4.2 2.4,-5.7 l 3.2,-3.2 c 1.5,-1.5 3.6,-2.4 5.8,-2.4 0.4,0 0.8,0.1 1.2,0.1 L 26.3,32 c -1.2,-0.4 -2.4,-0.6 -3.7,-0.6 -3,0 -5.8,1.2 -7.9,3.3 l -3.2,3.2 c -2.1,2.1 -3.3,4.9 -3.3,7.9 0,6.1 5,11.1 11.1,11.1 3,0 5.8,-1.2 7.9,-3.3 l 3.2,-3.2 c 2.1,-2.1 3.3,-4.9 3.3,-7.9 0,-1.3 -0.2,-2.5 -0.6,-3.7 l -2.6,2.5"></path>
<path d="m 44.9,9 c -3,0 -5.8,1.2 -7.9,3.3 l -3.2,3.2 c -2.1,2.1 -3.3,4.9 -3.3,7.9 0,1.3 0.2,2.5 0.6,3.7 l 2.5,-2.5 c -0.1,-0.4 -0.1,-0.8 -0.1,-1.2 0,-2.2 0.8,-4.2 2.4,-5.7 l 3.2,-3.2 c 1.5,-1.5 3.6,-2.4 5.8,-2.4 4.5,0 8.1,3.6 8.1,8.1 0,2.2 -0.8,4.2 -2.4,5.7 l -3.2,3.2 c -1.5,1.5 -3.6,2.4 -5.7,2.4 -0.4,0 -0.8,-0.1 -1.2,-0.1 L 38,33.8 c 1.2,0.4 2.4,0.6 3.7,0.6 3,0 5.8,-1.2 7.9,-3.3 l 3.2,-3.2 C 54.9,25.8 56.1,23 56.1,20 56,14 51,9 44.9,9"></path>
<path d="m 24.1,42.5 c -0.4,0 -0.8,-0.2 -1.1,-0.5 -0.6,-0.6 -0.6,-1.6 0,-2.3 l 16,-16 c 0.6,-0.6 1.6,-0.6 2.3,0 0.6,0.6 0.6,1.6 0,2.3 l -16,16 c -0.4,0.4 -0.8,0.5 -1.2,0.5"></path>
</g>
</g>
</g>
</g>
<use xlink:href="#object194506-lvl"></use>
</g>
<g bizzid="194549" bizzsemantic="194550" bizzconcept="UML_Association" bizztype="relation" bizzsymbol="link">
<g>
<g class="object194549">
<path style="fill:none;stroke-miterlimit:1.0;stroke-linejoin:round" d="M 730.00 1100.00 L 730.00 1340.00"></path>
</g>
</g>
<g style="fill:#ffffff;fill-opacity:0.00;stroke:none;stroke-width:0.00">
<rect x="751.00" y="1106.00" width="252.00" height="118.00"></rect>
</g>
<g style="fill:#ffffff;fill-opacity:0.00;stroke:none;stroke-width:0.00">
<rect x="636.00" y="1122.00" width="69.00" height="77.00"></rect>
</g>
<g style="fill:#ffffff;fill-opacity:0.00;stroke:none;stroke-width:0.00">
<rect x="739.00" y="1242.00" width="103.00" height="77.00"></rect>
</g>
<g style="fill:#ffffff;fill-opacity:0.00;stroke:none;stroke-width:0.00">
<ellipse cx="730.00" cy="1120.00" rx="20.00" ry="20.00"></ellipse>
</g>
<g style="fill:#ffffff;fill-opacity:0.00;stroke:none;stroke-width:0.00">
<ellipse cx="730.00" cy="1320.00" rx="20.00" ry="20.00"></ellipse>
</g>
<use xlink:href="#object194549-report"></use>
<g style="fill:#ffffff;fill-opacity:0.00;stroke:none;stroke-width:0.00">
<rect x="761.00" y="1116.00" width="40.00" height="57.00"></rect>
</g>
<g font-family="Arial" font-size="35.28" fill="#000000">
<text x="771.00" y="1156.00">+</text>
</g>
<g style="fill:#ffffff;fill-opacity:0.00;stroke:none;stroke-width:0.00">
<rect x="791.00" y="1116.00" width="202.00" height="98.00"></rect>
</g>
<g font-family="Arial" font-size="35.28" fill="#000000">
<text x="801.00" y="1156.00">Legal
</text>
<text x="801.00" y="1197.00">Jurisdiction</text>
</g>
<g style="fill:#ffffff;fill-opacity:0.00;stroke:none;stroke-width:0.00">
<rect x="646.00" y="1132.00" width="49.00" height="57.00"></rect>
</g>
<g font-family="Arial" font-size="35.28" fill="#000000">
<text x="656.00" y="1172.00">1</text>
</g>
<g style="fill:#ffffff;fill-opacity:0.00;stroke:none;stroke-width:0.00">
<rect x="749.00" y="1252.00" width="83.00" height="57.00"></rect>
</g>
<g font-family="Arial" font-size="35.28" fill="#000000">
<text x="759.00" y="1292.00">0..*</text>
</g>
<use xlink:href="#object194549-lvl"></use>
</g>
<g bizzid="194539" bizzsemantic="38641" bizzconcept="UML_Class" bizztype="node" bizzsymbol="rectangle">
<g>
<g class="object194539">
<rect x="2640.00" y="920.00" width="578.00" height="180.00"></rect>
</g>
<g transform="translate(2640.00, 920.00)" class="object194539">
<rect style="fill:#ffff80;fillOpacity:0.5" x="0" y="0" width="578.000" height="60"></rect>
</g>
</g>
<use xlink:href="#object194539-report"></use>
<g bizzid="label194539" bizzconcept="label" bizztype="text" bizzsymbol="text">
<g font-family="Arial" font-size="35.28" fill="#000000">
<text x="2735.50" y="962.00">Legal Compliance Check </text>
<text x="2838.50" y="1003.00">Involvement</text>
</g>
</g>
<g>
<g style="fill:#000000;stroke:none;stroke-width:1.00">
</g>
<g transform="translate(3168.00, 1060.00)" style="fill:#000000;stroke:none;stroke-width:1.00">
<g bizzsemantic="38640" bizzid="e9da5a16-15dc-ea11-82b8-060197b50cc2"><g style="fill-opacity:0;stroke-opacity:0"><rect x="0.00" y="0.00" width="40.00" height="30.00"></rect>
</g><g transform=" translate(0.000000, 0.000000) scale(0.784314,0.588235) translate(-6.000000, -7.000000)">
<path d="m 30.5,41.3 c 0.1,0.4 0.1,0.8 0.1,1.2 0,2.2 -0.8,4.2 -2.4,5.7 L 25,51.4 c -1.5,1.5 -3.6,2.4 -5.7,2.4 -4.5,0 -8.1,-3.6 -8.1,-8.1 0,-2.2 0.8,-4.2 2.4,-5.7 l 3.2,-3.2 c 1.5,-1.5 3.6,-2.4 5.8,-2.4 0.4,0 0.8,0.1 1.2,0.1 L 26.3,32 c -1.2,-0.4 -2.4,-0.6 -3.7,-0.6 -3,0 -5.8,1.2 -7.9,3.3 l -3.2,3.2 c -2.1,2.1 -3.3,4.9 -3.3,7.9 0,6.1 5,11.1 11.1,11.1 3,0 5.8,-1.2 7.9,-3.3 l 3.2,-3.2 c 2.1,-2.1 3.3,-4.9 3.3,-7.9 0,-1.3 -0.2,-2.5 -0.6,-3.7 l -2.6,2.5"></path>
<path d="m 44.9,9 c -3,0 -5.8,1.2 -7.9,3.3 l -3.2,3.2 c -2.1,2.1 -3.3,4.9 -3.3,7.9 0,1.3 0.2,2.5 0.6,3.7 l 2.5,-2.5 c -0.1,-0.4 -0.1,-0.8 -0.1,-1.2 0,-2.2 0.8,-4.2 2.4,-5.7 l 3.2,-3.2 c 1.5,-1.5 3.6,-2.4 5.8,-2.4 4.5,0 8.1,3.6 8.1,8.1 0,2.2 -0.8,4.2 -2.4,5.7 l -3.2,3.2 c -1.5,1.5 -3.6,2.4 -5.7,2.4 -0.4,0 -0.8,-0.1 -1.2,-0.1 L 38,33.8 c 1.2,0.4 2.4,0.6 3.7,0.6 3,0 5.8,-1.2 7.9,-3.3 l 3.2,-3.2 C 54.9,25.8 56.1,23 56.1,20 56,14 51,9 44.9,9"></path>
<path d="m 24.1,42.5 c -0.4,0 -0.8,-0.2 -1.1,-0.5 -0.6,-0.6 -0.6,-1.6 0,-2.3 l 16,-16 c 0.6,-0.6 1.6,-0.6 2.3,0 0.6,0.6 0.6,1.6 0,2.3 l -16,16 c -0.4,0.4 -0.8,0.5 -1.2,0.5"></path>
</g>
</g>
</g>
</g>
<use xlink:href="#object194539-lvl"></use>
</g>
<g bizzid="194502" bizzsemantic="194503" bizzconcept="UML_Association" bizztype="relation" bizzsymbol="link">
<g>
<g class="object194502">
<path style="fill:none;stroke-miterlimit:1.0;stroke-linejoin:round" d="M 2256.00 1020.00 L 2640.00 1020.00"></path>
</g>
</g>
<g style="fill:#ffffff;fill-opacity:0.00;stroke:none;stroke-width:0.00">
<rect x="2262.00" y="1042.00" width="108.00" height="77.00"></rect>
</g>
<g style="fill:#ffffff;fill-opacity:0.00;stroke:none;stroke-width:0.00">
<rect x="2529.00" y="922.00" width="103.00" height="77.00"></rect>
</g>
<g style="fill:#ffffff;fill-opacity:0.00;stroke:none;stroke-width:0.00">
<ellipse cx="2276.00" cy="1020.00" rx="20.00" ry="20.00"></ellipse>
</g>
<g style="fill:#ffffff;fill-opacity:0.00;stroke:none;stroke-width:0.00">
<ellipse cx="2620.00" cy="1020.00" rx="20.00" ry="20.00"></ellipse>
</g>
<use xlink:href="#object194502-report"></use>
<g style="fill:#ffffff;fill-opacity:0.00;stroke:none;stroke-width:0.00">
<rect x="2272.00" y="1052.00" width="88.00" height="57.00"></rect>
</g>
<g font-family="Arial" font-size="35.28" fill="#000000">
<text x="2282.00" y="1092.00">0..1</text>
</g>
<g style="fill:#ffffff;fill-opacity:0.00;stroke:none;stroke-width:0.00">
<rect x="2539.00" y="932.00" width="83.00" height="57.00"></rect>
</g>
<g font-family="Arial" font-size="35.28" fill="#000000">
<text x="2549.00" y="972.00">0..*</text>
</g>
<use xlink:href="#object194502-lvl"></use>
</g>
<g bizzid="194529" bizzsemantic="40152" bizzconcept="UML_Class" bizztype="node" bizzsymbol="rectangle">
<g>
<g class="object194529">
<rect x="2760.00" y="600.00" width="400.00" height="180.00"></rect>
</g>
<g transform="translate(2760.00, 600.00)" class="object194529">
<rect style="fill:#ffff80;fillOpacity:0.5" x="0" y="0" width="400.000" height="60"></rect>
</g>
</g>
<use xlink:href="#object194529-report"></use>
<g bizzid="label194529" bizzconcept="label" bizztype="text" bizzsymbol="text">
<g font-family="Arial" font-size="35.28" fill="#000000">
<text x="2881.00" y="642.00">Party Role</text>
</g>
</g>
<g>
<g style="fill:#000000;stroke:none;stroke-width:1.00">
</g>
<g transform="translate(3110.00, 740.00)" style="fill:#000000;stroke:none;stroke-width:1.00">
<g bizzsemantic="40151" bizzid="c1e56e02-7054-e911-8237-0676108d3cb6"><g style="fill-opacity:0;stroke-opacity:0"><rect x="0.00" y="0.00" width="40.00" height="30.00"></rect>
</g><g transform=" translate(0.000000, 0.000000) scale(0.784314,0.588235) translate(-6.000000, -7.000000)">
<path d="m 30.5,41.3 c 0.1,0.4 0.1,0.8 0.1,1.2 0,2.2 -0.8,4.2 -2.4,5.7 L 25,51.4 c -1.5,1.5 -3.6,2.4 -5.7,2.4 -4.5,0 -8.1,-3.6 -8.1,-8.1 0,-2.2 0.8,-4.2 2.4,-5.7 l 3.2,-3.2 c 1.5,-1.5 3.6,-2.4 5.8,-2.4 0.4,0 0.8,0.1 1.2,0.1 L 26.3,32 c -1.2,-0.4 -2.4,-0.6 -3.7,-0.6 -3,0 -5.8,1.2 -7.9,3.3 l -3.2,3.2 c -2.1,2.1 -3.3,4.9 -3.3,7.9 0,6.1 5,11.1 11.1,11.1 3,0 5.8,-1.2 7.9,-3.3 l 3.2,-3.2 c 2.1,-2.1 3.3,-4.9 3.3,-7.9 0,-1.3 -0.2,-2.5 -0.6,-3.7 l -2.6,2.5"></path>
<path d="m 44.9,9 c -3,0 -5.8,1.2 -7.9,3.3 l -3.2,3.2 c -2.1,2.1 -3.3,4.9 -3.3,7.9 0,1.3 0.2,2.5 0.6,3.7 l 2.5,-2.5 c -0.1,-0.4 -0.1,-0.8 -0.1,-1.2 0,-2.2 0.8,-4.2 2.4,-5.7 l 3.2,-3.2 c 1.5,-1.5 3.6,-2.4 5.8,-2.4 4.5,0 8.1,3.6 8.1,8.1 0,2.2 -0.8,4.2 -2.4,5.7 l -3.2,3.2 c -1.5,1.5 -3.6,2.4 -5.7,2.4 -0.4,0 -0.8,-0.1 -1.2,-0.1 L 38,33.8 c 1.2,0.4 2.4,0.6 3.7,0.6 3,0 5.8,-1.2 7.9,-3.3 l 3.2,-3.2 C 54.9,25.8 56.1,23 56.1,20 56,14 51,9 44.9,9"></path>
<path d="m 24.1,42.5 c -0.4,0 -0.8,-0.2 -1.1,-0.5 -0.6,-0.6 -0.6,-1.6 0,-2.3 l 16,-16 c 0.6,-0.6 1.6,-0.6 2.3,0 0.6,0.6 0.6,1.6 0,2.3 l -16,16 c -0.4,0.4 -0.8,0.5 -1.2,0.5"></path>
</g>
</g>
</g>
</g>
<use xlink:href="#object194529-lvl"></use>
</g>
<g bizzid="194536" bizzsemantic="194537" bizzconcept="UML_Generalization" bizztype="relation" bizzsymbol="link">
<g>
<g class="object194536">
<path style="fill:none;stroke-miterlimit:1.0;stroke-linejoin:round" d="M 2920.00 920.00 L 2920.00 780.00"></path>
</g>
<g transform="translate(2920.00, 780.00) rotate(0.000003) translate(-2920.00, -780.00)">
<g style="fill:#ffffff;stroke:#000000;stroke-width:6.00">
<path style="stroke-linejoin:round" d="M 2920.00 780.00 l 20.00 60.00 l -40.00 0.00 z"></path>
</g>
</g>
</g>
<use xlink:href="#object194536-report"></use>
<use xlink:href="#object194536-lvl"></use>
</g>
<g bizzid="194515" bizzsemantic="41277" bizzconcept="UML_Class" bizztype="node" bizzsymbol="rectangle">
<g>
<g class="object194515">
<rect x="2760.00" y="230.00" width="400.00" height="180.00"></rect>
</g>
<g transform="translate(2760.00, 230.00)" class="object194515">
<rect style="fill:#ffff80;fillOpacity:0.5" x="0" y="0" width="400.000" height="60"></rect>
</g>
</g>
<use xlink:href="#object194515-report"></use>
<g bizzid="label194515" bizzconcept="label" bizztype="text" bizzsymbol="text">
<g font-family="Arial" font-size="35.28" fill="#000000">
<text x="2920.00" y="272.00">Party</text>
</g>
</g>
<g>
<g style="fill:#000000;stroke:none;stroke-width:1.00">
</g>
<g transform="translate(3110.00, 370.00)" style="fill:#000000;stroke:none;stroke-width:1.00">
<g bizzsemantic="41276" bizzid="84db5a16-15dc-ea11-82b8-060197b50cc2"><g style="fill-opacity:0;stroke-opacity:0"><rect x="0.00" y="0.00" width="40.00" height="30.00"></rect>
</g><g transform=" translate(0.000000, 0.000000) scale(0.784314,0.588235) translate(-6.000000, -7.000000)">
<path d="m 30.5,41.3 c 0.1,0.4 0.1,0.8 0.1,1.2 0,2.2 -0.8,4.2 -2.4,5.7 L 25,51.4 c -1.5,1.5 -3.6,2.4 -5.7,2.4 -4.5,0 -8.1,-3.6 -8.1,-8.1 0,-2.2 0.8,-4.2 2.4,-5.7 l 3.2,-3.2 c 1.5,-1.5 3.6,-2.4 5.8,-2.4 0.4,0 0.8,0.1 1.2,0.1 L 26.3,32 c -1.2,-0.4 -2.4,-0.6 -3.7,-0.6 -3,0 -5.8,1.2 -7.9,3.3 l -3.2,3.2 c -2.1,2.1 -3.3,4.9 -3.3,7.9 0,6.1 5,11.1 11.1,11.1 3,0 5.8,-1.2 7.9,-3.3 l 3.2,-3.2 c 2.1,-2.1 3.3,-4.9 3.3,-7.9 0,-1.3 -0.2,-2.5 -0.6,-3.7 l -2.6,2.5"></path>
<path d="m 44.9,9 c -3,0 -5.8,1.2 -7.9,3.3 l -3.2,3.2 c -2.1,2.1 -3.3,4.9 -3.3,7.9 0,1.3 0.2,2.5 0.6,3.7 l 2.5,-2.5 c -0.1,-0.4 -0.1,-0.8 -0.1,-1.2 0,-2.2 0.8,-4.2 2.4,-5.7 l 3.2,-3.2 c 1.5,-1.5 3.6,-2.4 5.8,-2.4 4.5,0 8.1,3.6 8.1,8.1 0,2.2 -0.8,4.2 -2.4,5.7 l -3.2,3.2 c -1.5,1.5 -3.6,2.4 -5.7,2.4 -0.4,0 -0.8,-0.1 -1.2,-0.1 L 38,33.8 c 1.2,0.4 2.4,0.6 3.7,0.6 3,0 5.8,-1.2 7.9,-3.3 l 3.2,-3.2 C 54.9,25.8 56.1,23 56.1,20 56,14 51,9 44.9,9"></path>
<path d="m 24.1,42.5 c -0.4,0 -0.8,-0.2 -1.1,-0.5 -0.6,-0.6 -0.6,-1.6 0,-2.3 l 16,-16 c 0.6,-0.6 1.6,-0.6 2.3,0 0.6,0.6 0.6,1.6 0,2.3 l -16,16 c -0.4,0.4 -0.8,0.5 -1.2,0.5"></path>
</g>
</g>
</g>
</g>
<use xlink:href="#object194515-lvl"></use>
</g>
<g bizzid="194513" bizzsemantic="52101" bizzconcept="UML_ClassDiagram" bizztype="node" bizzsymbol="rectangle">
<g class="object194513">
<rect x="2659.00" y="110.00" width="540.00" height="100.00"></rect>
</g>
<use xlink:href="#object194513-report"></use>
<g bizzid="icon194513" bizzconcept="icon" bizztype="node" bizzsymbol="MetaModels/UML/UML_ClassDiagram">
<g class="icon194513" transform=" translate(3144.000000, 120.000000) scale(0.106383,0.106383) translate(-0.000000, -0.000000)">
<use xlink:href="#symbol-MetaModels/UML/UML_ClassDiagram"></use>
</g>
</g>
<g bizzid="label194513" bizzconcept="label" bizztype="text" bizzsymbol="text">
<g font-family="arial" font-size="31.75" fill="#000000">
<text x="2783.00" y="170.00">Party Helper Diagram</text>
</g>
</g>
<use xlink:href="#object194513-lvl"></use>
</g>
<g bizzid="194500" bizzsemantic="62179" bizzconcept="UML_Association" bizztype="relation" bizzsymbol="link">
<g>
<g class="object194500">
<path style="fill:none;stroke-miterlimit:1.0;stroke-linejoin:round" d="M 2960.00 410.00 L 2960.00 600.00"></path>
</g>
</g>
<g style="fill:#ffffff;fill-opacity:0.00;stroke:none;stroke-width:0.00">
<rect x="2866.00" y="432.00" width="69.00" height="77.00"></rect>
</g>
<g style="fill:#ffffff;fill-opacity:0.00;stroke:none;stroke-width:0.00">
<rect x="2969.00" y="502.00" width="103.00" height="77.00"></rect>
</g>
<g style="fill:#ffffff;fill-opacity:0.00;stroke:none;stroke-width:0.00">
<ellipse cx="2960.00" cy="430.00" rx="20.00" ry="20.00"></ellipse>
</g>
<g style="fill:#ffffff;fill-opacity:0.00;stroke:none;stroke-width:0.00">
<ellipse cx="2960.00" cy="580.00" rx="20.00" ry="20.00"></ellipse>
</g>
<use xlink:href="#object194500-report"></use>
<g style="fill:#ffffff;fill-opacity:0.00;stroke:none;stroke-width:0.00">
<rect x="2876.00" y="442.00" width="49.00" height="57.00"></rect>
</g>
<g font-family="Arial" font-size="35.28" fill="#000000">
<text x="2886.00" y="482.00">1</text>
</g>
<g style="fill:#ffffff;fill-opacity:0.00;stroke:none;stroke-width:0.00">
<rect x="2979.00" y="512.00" width="83.00" height="57.00"></rect>
</g>
<g font-family="Arial" font-size="35.28" fill="#000000">
<text x="2989.00" y="552.00">0..*</text>
</g>
<use xlink:href="#object194500-lvl"></use>
</g>
</g>
<use xlink:href="#foreground"></use>
</g>
</svg>